<?xml version="1.0" standalone="no"?>
<!DOCTYPE svg PUBLIC "-//W3C//DTD SVG 1.1//EN" "http://www.w3.org/Graphics/SVG/1.1/DTD/svg11.dtd">
<svg xmlns="http://www.w3.org/2000/svg"><metadata>This SVG WebFont was generated by YouWorkForThem.
Copyright 2010 URW++ Design &amp; Development</metadata><defs><font horiz-adv-x="1024" id="ywftsvg"><font-face ascent="1423" bbox="-254 -514 3365 1845" cap-height="1366" descent="-625" font-family="" font-stretch="normal" font-weight="900" panose-1="0 0 10 0 0 0 0 0 0 0" underline-position="0" underline-thickness="0" unicode-range="U+0020-FB02" units-per-em="2048" x-height="1151"/><missing-glyph horiz-adv-x="614"/><glyph d="M829 0h-663v457h-160v458h160v209q0 174 123 244q90 53 198.5 68.5t300.5 15.5t447 -12v-359q-121 11 -217 11t-142.5 -25t-46.5 -90v-62h406v-458h-406v-457zM2021 0h-663v1171q121 -20 332 -20t331 20v-1171zM2021 1401v-127q0 -35 -15 -46t-67 -11h-477 q-51 0 -66.5 11t-15.5 46v127q0 35 15.5 46t66.5 11h477q51 0 66.5 -11t15.5 -46z" glyph-name="uniFB01" horiz-adv-x="2134" unicode="fi"/><glyph d="M829 0h-663v457h-160v458h160v209q0 174 123 244q90 53 198.5 68.5t300.5 15.5t447 -12v-359q-121 11 -217 11t-142.5 -25t-46.5 -90v-62h406v-458h-406v-457zM2021 0h-663v1423h663v-1423z" glyph-name="uniFB02" horiz-adv-x="2134" unicode="fl"/><glyph glyph-name=".notdef" horiz-adv-x="614"/><glyph glyph-name="glyph1" horiz-adv-x="0"/><glyph glyph-name="glyph2" horiz-adv-x="681"/><glyph glyph-name="space" horiz-adv-x="614" unicode=" "/><glyph d="M117 1264q0 121 64.5 155.5t278.5 34.5t277.5 -36t63.5 -154q0 -35 -6 -66l-121 -747h-430l-123 747q-4 41 -4 66zM725 172q0 -90 -70.5 -140t-196.5 -50t-197 51t-71 142q0 179 268 179t267 -182z" glyph-name="exclam" horiz-adv-x="917" unicode="!"/><glyph d="M47 1280q0 78 42 101.5t183 23.5t182.5 -23.5t41.5 -101.5q0 -14 -4 -43l-68 -424h-305l-68 424q-4 14 -4 43zM578 1280q0 78 42 101.5t183 23.5t182 -23.5t41 -101.5q0 -14 -4 -43l-68 -424h-305l-67 424q-4 29 -4 43z" glyph-name="quotedbl" horiz-adv-x="1071" unicode="&quot;"/><glyph d="M948 330l-47 -330h-303l45 330h-154l-47 -330h-305l47 330h-184l43 299h184l19 139h-185l43 299h185l41 299h305l-43 -299h156l40 299h306l-43 -299h213l-43 -299h-211l-21 -139h213l-43 -299h-211zM705 768h-154l-21 -139h156z" glyph-name="numbersign" horiz-adv-x="1263" unicode="#"/><glyph d="M694 -272v245q-305 8 -602 68v375q377 -68 682 -68q88 0 88 62q0 29 -17.5 39t-70.5 10h-102q-88 0 -232 16q-221 27 -311 158q-72 100 -72 260q0 244 150.5 361.5t486.5 136.5v200h178v-196q334 -12 590 -68v-401q-274 47 -495 47h-140q-117 0 -116 -64q0 -25 18.5 -40 t48.5 -15h221q193 0 318 -51q88 -37 141 -130t53 -229t-89 -254t-246 -174q-100 -35 -304 -43v-245h-178z" glyph-name="dollar" horiz-adv-x="1568" unicode="$"/><glyph d="M1004 1033q0 -161 -102 -256t-360 -95q-260 0 -360 94t-100 257t112 258t348 95q234 0 345 -90q117 -102 117 -263zM543 1182q-121 0 -121 -133q0 -74 28.5 -107t92 -33t92.5 33t29 104t-29 103.5t-92 32.5zM1503 1366h287l-1094 -1366h-286zM1651 -18q-265 0 -365 94 t-100 256t117 262q110 90 343.5 90t344.5 -90q117 -100 116 -268q0 -344 -456 -344zM1647 479q-121 0 -121 -133q0 -72 28.5 -104.5t92 -32.5t92 32.5t28.5 102.5t-28.5 102.5t-91.5 32.5z" glyph-name="percent" horiz-adv-x="2189" unicode="%"/><glyph d="M575 -29q-242 0 -378 101.5t-136 280.5t158 265q92 51 246 95q-127 115 -160 167t-33 140q0 180 186 277.5t506 97.5t480 -64q82 -33 134 -99.5t52 -140t-53 -146.5t-127 -103t-246 -64l76 -65h752l-392 -320l396 -393h-824l-118 121q-137 -82 -254 -116t-265 -34z M1151 1092q0 100 -116.5 100t-116.5 -107q0 -67 98 -155q78 49 106.5 83t28.5 79zM612 373q0 -37 32 -68t73 -31q73 0 139 78l-151 144q-55 -39 -74 -62.5t-19 -60.5z" glyph-name="ampersand" horiz-adv-x="2091" unicode="&amp;"/><glyph d="M47 1280q0 78 42 101.5t183 23.5t182.5 -23.5t41.5 -101.5q0 -14 -4 -43l-68 -424h-305l-68 424q-4 14 -4 43z" glyph-name="quotesingle" horiz-adv-x="540" unicode="'"/><glyph d="M82 682q0 391 266 741h373q-127 -227 -175 -388t-48 -353.5t49 -354t174 -386.5h-373q-266 350 -266 741z" glyph-name="parenleft" horiz-adv-x="776" unicode="("/><glyph d="M279 681.5q0 192.5 -48.5 354.5t-175.5 387h373q266 -346 266 -741t-266 -741h-373q127 225 175.5 386.5t48.5 354z" glyph-name="parenright" horiz-adv-x="776" unicode=")"/><glyph d="M381 1423h262v-237l244 67l69 -239l-239 -64l145 -209l-209 -155l-141 198l-141 -198l-209 155l145 209l-239 64l69 239l244 -67v237z" glyph-name="asterisk" unicode="*"/><glyph d="M31 838h354v366h317v-366h359v-312h-359v-366h-317v366h-354v312z" glyph-name="plus" horiz-adv-x="1091" unicode="+"/><glyph d="M696 328l-264 -600h-321l120 600h465z" glyph-name="comma" horiz-adv-x="792" unicode=","/><glyph d="M696 395h-696v383h696v-383z" glyph-name="hyphen" horiz-adv-x="696" unicode="-"/><glyph d="M362 354q137 0 203 -44t66 -136t-71 -142t-198 -50t-196.5 51t-69.5 141q0 180 266 180z" glyph-name="period" horiz-adv-x="727" unicode="."/><glyph d="M-70 -59l740 1482h411l-739 -1482h-412z" glyph-name="slash" horiz-adv-x="1097" unicode="/"/><glyph d="M862 1405q336 0 541 -160q221 -176 221 -563q0 -184 -59.5 -336.5t-165.5 -241.5q-176 -143 -558 -143t-560 156q-100 88 -156.5 241.5t-56.5 338.5t65.5 338t166.5 223t252.5 108.5t309.5 38.5zM846 911q-209 0 -209 -259t209 -259t209 259t-209 259z" glyph-name="zero" horiz-adv-x="1693" unicode="0"/><glyph d="M995 0h-673v741l-281 -94v479l317 240h637v-1366z" glyph-name="one" horiz-adv-x="1103" unicode="1"/><glyph d="M1499 0h-1399v373q371 125 588 256q96 59 133 101t37 95t-36 86t-95 33q-129 0 -162 -137q-8 -33 -8 -105h-485q-4 78 -4 95q0 317 211 471q176 127 537 127t520 -133t159 -332q0 -246 -252 -375q-123 -61 -377 -152h633v-403z" glyph-name="two" horiz-adv-x="1566" unicode="2"/><glyph d="M414 330q176 0 240.5 27.5t64.5 91.5q0 123 -303 122q-123 0 -246 -10v94l428 285h-535v426h1358v-330l-446 -288l90 2q199 0 302 -82t103 -240q0 -229 -200 -343t-530 -114q-331 0 -677 88l-22 328q197 -57 373 -57z" glyph-name="three" horiz-adv-x="1538" unicode="3"/><glyph d="M1495 0h-666v193h-761v548l526 625h901v-784h186v-389h-186v-193zM850 551v426l-334 -426h334z" glyph-name="four" horiz-adv-x="1724" unicode="4"/><glyph d="M502 313q148 0 210 24.5t62 88.5q0 125 -317 125q-190 0 -355 -21v836h1344v-426h-809v-121q135 6 261 6q271 0 433 -88q184 -100 185 -313q0 -240 -244 -356q-192 -96 -546 -96t-624 77v303q252 -39 400 -39z" glyph-name="five" horiz-adv-x="1583" unicode="5"/><glyph d="M1072 987q-200 0 -265.5 -32.5t-75.5 -127.5q162 41 307 41q305 0 426 -103t121 -302q0 -145 -65.5 -257t-180.5 -165q-161 -70 -451 -70t-429.5 34t-227.5 114q-163 145 -163 535t187 565.5t619 175.5q331 -1 650 -58v-395q-252 45 -452 45zM854 250q154 0 154 190 q0 82 -35 118t-109 36t-157 -35v-125q0 -80 16 -110q14 -33 52 -53.5t79 -20.5z" glyph-name="six" horiz-adv-x="1646" unicode="6"/><glyph d="M55 829v537h1370v-467l-634 -899h-619l473 829h-590z" glyph-name="seven" horiz-adv-x="1480" unicode="7"/><glyph d="M80 1006q0 199 188.5 294t579.5 95t579.5 -95.5t188.5 -293.5q0 -168 -107 -252q-57 -47 -188 -74q129 -25 201 -88q106 -90 106 -234q0 -96 -46 -175t-134 -125t-224.5 -66.5t-376 -20.5t-375.5 20.5t-223 66.5t-134 126t-47 174q0 143 106 234q72 63 201 88 q-131 27 -189 74q-106 84 -106 252zM855 1040q-85 0 -133 -37.5t-48 -108.5t47 -110t134 -39t134 39t47 109t-48 108.5t-133 38.5zM1030 417.5q0 141.5 -176 141.5t-176 -141t176 -141.5t176 141z" glyph-name="eight" horiz-adv-x="1695" unicode="8"/><glyph d="M918 438q0 16 -3 27q-113 -33 -305 -33q-295 0 -422 103.5t-127 361.5t174.5 378t565.5 120t549 -133q96 -84 150 -229.5t54 -325.5q0 -360 -178 -549q-94 -98 -241.5 -142t-410.5 -44t-554 55l-41 348q297 -57 543 -57t246 120zM938 854q0 100 -35 142t-113 42 t-118.5 -42t-40.5 -119q0 -154 160 -154q77 0 147 10v121z" glyph-name="nine" horiz-adv-x="1622" unicode="9"/><glyph d="M362 1161q137 0 203 -44t66 -137t-71 -143.5t-198 -50.5t-196.5 51.5t-69.5 141.5q0 182 266 182zM362 354q137 0 203 -44t66 -136t-71 -142t-198 -50t-196.5 51t-69.5 141q0 180 266 180z" glyph-name="colon" horiz-adv-x="727" unicode=":"/><glyph d="M467 1161q266 0 266 -182q0 -92 -70.5 -142.5t-196.5 -50.5t-195.5 51.5t-69.5 141.5q0 182 266 182zM682 328l-264 -600h-322l121 600h465z" glyph-name="semicolon" horiz-adv-x="831" unicode=";"/><glyph d="M954 1393v-447l-413 -252l411 -254l2 -442l-886 512v371z" glyph-name="less" unicode="&lt;"/><glyph d="M31 1077h1030v-311h-1030v311zM31 600h1030v-311h-1030v311z" glyph-name="equal" horiz-adv-x="1091" unicode="="/><glyph d="M68 -2v444l415 254l-413 254l-2 443l886 -512v-373z" glyph-name="greater" unicode=">"/><glyph d="M516 854q0 78 -50 104.5t-162 26.5t-249 -29v461q231 37 519 37t413 -74q61 -35 96 -104.5t35 -150.5t-25.5 -155.5t-117.5 -244.5t-174 -283h-527q13 17 60 82.5t78 108.5q104 143 104 221zM528.5 354q266.5 0 266.5 -182q0 -90 -71 -140t-197 -50t-195.5 50t-69.5 140 q0 182 266.5 182z" glyph-name="question" horiz-adv-x="1171" unicode="?"/><glyph d="M978 1202q-667 0 -667 -392t167 -519t516 -127t526 137h327q-61 -109 -147 -168q-250 -172 -715 -172t-704 172q-113 82 -173.5 224.5t-60.5 324.5q0 397 260 565q244 158 673 158t667 -143q104 -63 167.5 -173t63.5 -230t-63.5 -225.5t-169.5 -162.5q-145 -76 -385 -76 h-283l29 111q-41 -68 -94.5 -96.5t-141.5 -28.5q-199 0 -199 162q0 86 38 201.5t81 162.5q76 78 217 78q96 0 140.5 -28.5t50.5 -96.5l28 111h283l-96 -373q188 0 260 81t72 174t-44.5 161.5t-117.5 103.5q-174 84 -505 84zM864 635q0 -53 68 -53t98 48t29 102t-63 54 t-97 -42t-35 -109z" glyph-name="at" horiz-adv-x="1925" unicode="@"/><glyph d="M1962 0h-707l-49 176h-456l-50 -176h-716l436 1366h1112zM1124 549l-141 432l-147 -432h288z" glyph-name="A" horiz-adv-x="1939" unicode="A"/><glyph d="M133 0v1366h1397q182 0 287 -84q115 -96 114 -242q0 -174 -147 -274q-82 -55 -230 -88q150 -12 232 -55q72 -33 114 -103.5t42 -154.5q0 -166 -139.5 -265.5t-370.5 -99.5h-1299zM836 803h262q72 0 101.5 22.5t29.5 78.5t-30 79t-101 23h-262v-203zM836 328h297 q66 0 93 23.5t27 76.5t-27.5 76.5t-92.5 23.5h-297v-200z" glyph-name="B" horiz-adv-x="2035" unicode="B"/><glyph d="M1095 -29q-299 0 -465.5 36t-288.5 125t-191.5 238.5t-69.5 320.5t66.5 315.5t183.5 228.5q221 160 639 160q319 0 739 -64v-534q-311 53 -517 53t-290 -49t-84 -162t84 -158t313 -45t469 56v-474q-289 -47 -588 -47z" glyph-name="C" horiz-adv-x="1753" unicode="C"/><glyph d="M133 0v1366h1192q326 0 500 -177t174 -462q0 -362 -270 -557q-231 -170 -574 -170h-1022zM942 410q330 0 330 266q0 219 -236 219h-200v-485h106z" glyph-name="D" horiz-adv-x="2078" unicode="D"/><glyph d="M1700 0h-1567v1366h1567v-438h-864v-127h864v-328h-864v-115h864v-358z" glyph-name="E" horiz-adv-x="1767" unicode="E"/><glyph d="M1677 354h-841v-354h-703v1366h1544v-459h-841v-137h841v-416z" glyph-name="F" horiz-adv-x="1726" unicode="F"/><glyph d="M1782 688v-616q-426 -100 -738 -101q-422 0 -673 142q-291 164 -291 575q0 362 252 541q233 166 647 166t780 -84v-475q-293 59 -543 59t-352 -72q-108 -70 -108 -208t83 -211.5t224 -73.5q23 0 84 4v354h635z" glyph-name="G" horiz-adv-x="1886" unicode="G"/><glyph d="M1890 0h-702v424h-352v-424h-703v1366h703v-483h352v483h702v-1366z" glyph-name="H" horiz-adv-x="2025" unicode="H"/><glyph d="M840 0h-703v1366h703v-1366z" glyph-name="I" horiz-adv-x="978" unicode="I"/><glyph d="M489 682v684h703v-913q0 -252 -151.5 -367t-483.5 -115q-258 1 -526 58v454q133 -35 249 -35t162.5 47.5t46.5 186.5z" glyph-name="J" horiz-adv-x="1318" unicode="J"/><glyph d="M836 0h-703v1366h703v-526l335 526h832l-573 -702l536 -664h-795l-335 436v-436z" glyph-name="K" horiz-adv-x="1966" unicode="K"/><glyph d="M1434 0h-1301v1366h703v-883h598v-483z" glyph-name="L" horiz-adv-x="1478" unicode="L"/><glyph d="M2331 0h-672v702l-240 -702h-383l-239 680v-680h-664v1366h881l213 -664l215 664h889v-1366z" glyph-name="M" horiz-adv-x="2465" unicode="M"/><glyph d="M1890 0h-618l-475 612v-612h-664v1366h705l389 -571v571h663v-1366z" glyph-name="N" horiz-adv-x="2025" unicode="N"/><glyph d="M1042 1405q458 0 691 -179t233 -552q0 -176 -61.5 -318.5t-171.5 -222.5q-240 -172 -710 -172t-710 172q-233 170 -233 559t260 555q244 158 702 158zM1022 942q-115 0 -174.5 -67.5t-59.5 -196.5q0 -322 235 -322t234 320q1 266 -235 266z" glyph-name="O" horiz-adv-x="2043" unicode="O"/><glyph d="M836 0h-703v1366h1284q252 0 390.5 -125t138.5 -352q0 -139 -56.5 -257t-158.5 -190q-188 -131 -557 -131h-338v-311zM836 686h227q197 0 197 154q0 63 -38 98t-108 35h-278v-287z" glyph-name="P" horiz-adv-x="1992" unicode="P"/><glyph d="M80 684q0 395 260 563q244 158 683 158t691 -163t252 -558q0 -289 -138 -458t-423 -228l147 -270h-579l-148 243q-231 25 -364 80q-381 160 -381 633zM1022 942q-234 0 -234 -262q0 -324 235 -324t234 320q-1 266 -235 266z" glyph-name="Q" horiz-adv-x="2043" unicode="Q"/><glyph d="M836 0h-703v1366h1317q233 0 346 -90q70 -53 109 -134t39 -173q0 -186 -150 -303q-104 -80 -278 -99l471 -567h-816l-335 432v-432zM836 719h215q90 0 133 24q63 39 63 119t-35.5 109.5t-119.5 29.5h-256v-282z" glyph-name="R" horiz-adv-x="2031" unicode="R"/><glyph d="M784 911q0 -57 76 -57h246q209 0 352 -51q96 -37 155.5 -130t59.5 -208t-55.5 -213t-159.5 -164t-237.5 -91.5t-368.5 -25.5q-375 0 -758 70v375q428 -66 764 -66q94 0 94 62q0 27 -20.5 37t-75.5 10h-115q-98 0 -258 16q-426 47 -426 418q0 240 162 360q190 141 680 142 q375 0 721 -68v-401q-303 47 -551 47h-154q-131 0 -131 -62z" glyph-name="S" horiz-adv-x="1736" unicode="S"/><glyph d="M1098 0h-703v823h-409v543h1523v-543h-411v-823z" glyph-name="T" horiz-adv-x="1495" unicode="T"/><glyph d="M127 1366h702v-840q0 -90 21 -118q33 -48 120 -48t120 48q20 29 20 118v840h702v-825q0 -174 -72.5 -372t-778.5 -198t-770 205t-64 383v807z" glyph-name="U" horiz-adv-x="1939" unicode="U"/><glyph d="M1442 0h-1014l-451 1366h725l236 -846l217 846h723z" glyph-name="V" horiz-adv-x="1853" unicode="V"/><glyph d="M2062 0h-686l-172 623l-174 -623h-670l-383 1366h707l141 -676l164 676h463l152 -653l145 653h692z" glyph-name="W" horiz-adv-x="2418" unicode="W"/><glyph d="M1911 0h-768l-185 319l-204 -319h-768l477 662l-498 704h821l172 -367l185 367h799l-502 -704z" glyph-name="X" horiz-adv-x="1906" unicode="X"/><glyph d="M1276 0h-701v393l-598 973h785l182 -414l164 414h758l-590 -973v-393z" glyph-name="Y" horiz-adv-x="1843" unicode="Y"/><glyph d="M1581 0h-1526v305l623 582h-623v479h1526v-408l-586 -512h586v-446z" glyph-name="Z" horiz-adv-x="1632" unicode="Z"/><glyph d="M721 1423v-301h-221v-880h221v-301h-565v1482h565z" glyph-name="bracketleft" horiz-adv-x="804" unicode="["/><glyph d="M1167 -59h-411l-740 1482h412z" glyph-name="backslash" horiz-adv-x="1097" unicode="\"/><glyph d="M84 -59v301h219v880h-219v301h563v-1482h-563z" glyph-name="bracketright" horiz-adv-x="804" unicode="]"/><glyph d="M387 672h-387l266 704h494l266 -704h-387l-125 405z" glyph-name="asciicircum" unicode="^"/><glyph d="M0 -92h1024v-254h-1024v254z" glyph-name="underscore" unicode="_"/><glyph d="M858 1268h-545l-309 239h711z" glyph-name="grave" unicode="`"/><glyph d="M1757 0h-663v145q-94 -98 -198.5 -136t-275.5 -38t-360.5 81t-189.5 523q0 326 144 465q144 140 439 140t441 -191v162h663v-1151zM915.5 776q-90.5 0 -141.5 -57t-51 -164t51 -169t141.5 -62t141.5 62.5t51 167.5t-51 163.5t-141.5 58.5z" glyph-name="a" horiz-adv-x="1826" unicode="a"/><glyph d="M111 0v1423h663v-434q145 191 440 191q296 0 440 -140t144 -465q0 -256 -92 -407q-125 -197 -459 -197q-170 0 -274.5 38t-198.5 136v-145h-663zM952 776q-90 0 -141 -57t-51 -164t51 -169t141 -62t141.5 62.5t51.5 167.5t-51.5 163.5t-141.5 58.5z" glyph-name="b" horiz-adv-x="1863" unicode="b"/><glyph d="M871 -31q-325 0 -513 88q-139 63 -215.5 204t-76.5 311t54 290.5t148 181.5q215 137 633 138q248 0 567 -60l9 -450q-254 39 -407 39q-153 1 -213 -15t-94 -58t-34 -110t62.5 -111.5t177.5 -43.5q191 -1 508 65l-9 -383q-272 -86 -597 -86z" glyph-name="c" horiz-adv-x="1536" unicode="c"/><glyph d="M1753 0h-663v145q-94 -98 -199 -136t-275 -38q-334 0 -458 197q-92 145 -92 407q0 326 144 465q144 140 439 140t441 -191v434h663v-1423zM911 776q-90 0 -141 -57t-51 -164t51 -169t141 -62t141.5 62.5t51.5 167.5t-51.5 163.5t-141.5 58.5z" glyph-name="d" horiz-adv-x="1863" unicode="d"/><glyph d="M907 1180q489 0 656 -209q51 -63 82.5 -179t31.5 -241q0 -12 -4 -102h-907q0 -88 53 -122t195 -34q290 0 659 92l-137 -315q-428 -98 -705 -99q-767 0 -765 582q0 160 61 293t168 205q188 129 612 129zM1145 713q-5 190 -197 190q-98 0 -148.5 -45t-64.5 -145h410z" glyph-name="e" horiz-adv-x="1742" unicode="e"/><glyph d="M829 0h-663v457h-160v458h160v209q0 174 123 244q90 53 198.5 68.5t300.5 15.5t447 -12v-359q-121 11 -217 11t-142.5 -25t-46.5 -90v-62h406v-458h-406v-457z" glyph-name="f" horiz-adv-x="1249" unicode="f"/><glyph d="M1765 1151v-936q0 -270 -186 -390t-797 -120q-274 0 -596 29l-36 313q252 -59 553 -59t374 100q25 33 25 102q-100 -57 -201.5 -80.5t-249.5 -23.5q-301 0 -432 117q-153 135 -153 429t155 431q135 117 426 117q176 0 280.5 -38t174.5 -126v135h663zM898 856 q-89 0 -140 -59t-51 -165t51 -168.5t141 -62.5t141.5 62.5t51.5 168.5t-52.5 165t-141.5 59z" glyph-name="g" horiz-adv-x="1875" unicode="g"/><glyph d="M1772 0h-664v563q0 84 -37 121t-126 37t-130 -41t-41 -131v-549h-663v1423h663v-446q84 113 195.5 158t300.5 45q256 0 379 -115t123 -350v-715z" glyph-name="h" horiz-adv-x="1882" unicode="h"/><glyph d="M774 0h-663v1171q121 -20 331.5 -20t331.5 20v-1171zM774 1401v-127q0 -35 -15.5 -46t-66.5 -11h-477q-51 0 -66.5 11t-15.5 46v127q0 35 15.5 46t66.5 11h477q51 0 66.5 -11t15.5 -46z" glyph-name="i" horiz-adv-x="884" unicode="i"/><glyph d="M33 53q68 0 86 51q6 20 6 123v944q129 -20 332 -20t329 20v-997q0 -152 -22.5 -228.5t-79.5 -127.5t-160.5 -70.5t-239.5 -19.5t-309 6v325q49 -6 58 -6zM786 1401v-127q0 -37 -14 -47t-67 -10h-478q-51 0 -66.5 11t-15.5 46v127q0 35 15.5 46t66.5 11h478q53 0 67 -10 t14 -47z" glyph-name="j" horiz-adv-x="888" unicode="j"/><glyph d="M774 0h-663v1423h663v-745l248 473h770l-436 -584l354 -567h-688l-248 387v-387z" glyph-name="k" horiz-adv-x="1757" unicode="k"/><glyph d="M774 0h-663v1423h663v-1423z" glyph-name="l" horiz-adv-x="884" unicode="l"/><glyph d="M2710 0h-664v553q0 100 -28.5 134t-115.5 34t-122 -39t-35 -137v-545h-664v528q0 104 -33.5 142.5t-120.5 38.5t-120 -36t-33 -126v-547h-663v1151h620v-190q94 125 200.5 172t291.5 47q252 0 366 -97q57 -51 97 -155q57 111 126 159q127 93 383 93q515 1 515 -457v-723z " glyph-name="m" horiz-adv-x="2820" unicode="m"/><glyph d="M1772 0h-664v563q0 84 -37 121t-126 37t-130 -41t-41 -131v-549h-663v1151h663v-174q84 113 195.5 158t300.5 45q256 0 379 -115t123 -350v-715z" glyph-name="n" horiz-adv-x="1882" unicode="n"/><glyph d="M896 1190q232 0 362.5 -28.5t232.5 -102.5q213 -151 213 -473t-196 -474t-625 -151q-428 0 -622.5 150.5t-194.5 490.5q0 303 190 440q106 78 257 113t383 35zM891 799q-211 0 -211 -213q0 -258 211 -258t211 254q0 113 -51 165t-160 52z" glyph-name="o" horiz-adv-x="1769" unicode="o"/><glyph d="M111 -272v1423h663v-162q145 191 440 191q296 0 440 -140t144 -465q0 -256 -92 -407q-66 -102 -176.5 -149.5t-282.5 -47.5t-275.5 38t-197.5 136v-417h-663zM952 776q-90 0 -141 -58t-51 -164t51 -168t141 -62t141.5 62.5t51.5 167.5t-51.5 163.5t-141.5 58.5z" glyph-name="p" horiz-adv-x="1863" unicode="p"/><glyph d="M1753 -272h-663v417q-94 -98 -199 -136t-276 -38t-360 81t-189 523q0 326 144 465q144 140 439 140t441 -191v162h663v-1423zM911 776q-90 0 -141 -57t-51 -164t51 -169t141 -62t141.5 62.5t51.5 167.5t-51.5 163.5t-141.5 58.5z" glyph-name="q" horiz-adv-x="1863" unicode="q"/><glyph d="M774 0h-663v1151h618v-293q45 201 152 275q70 49 227 49q59 0 141 -11v-641q-172 2 -237.5 -4t-127.5 -32t-86 -69.5t-24 -135.5v-289z" glyph-name="r" horiz-adv-x="1286" unicode="r"/><glyph d="M982 815q-208 0 -252 -9t-44 -36t29 -33q23 -6 110 -6h117q248 -4 295 -14q113 -20 172 -101.5t59 -209.5t-54 -222t-148 -137q-170 -76 -529 -76q-256 0 -618 41l-27 338q324 -39 526 -39t222 8q20 6 20 35q0 37 -57 37l-127 -2q-340 0 -457 64q-176 92 -176 323 t182 330q135 74 527 74t663 -27v-365q-225 27 -433 27z" glyph-name="s" horiz-adv-x="1511" unicode="s"/><glyph d="M199 279v411h-199v234l496 442h364v-215h457v-461h-457v-237q0 -80 33 -100.5t141 -20.5t203 12l-84 -321q-244 -51 -500 -51t-355 70.5t-99 236.5z" glyph-name="t" horiz-adv-x="1363" unicode="t"/><glyph d="M1710 1151v-698q0 -244 -160 -353q-197 -129 -640 -129t-640 129q-160 109 -159 353v698h663v-659q0 -98 30 -135.5t107.5 -37.5t106.5 37t29 136v659h663z" glyph-name="u" horiz-adv-x="1820" unicode="u"/><glyph d="M1311 0h-918l-395 1151h682l174 -717l170 717h680z" glyph-name="v" horiz-adv-x="1699" unicode="v"/><glyph d="M2169 0h-752l-155 543l-148 -543h-780l-336 1151h678l137 -608l156 608h565l162 -608l141 608h688z" glyph-name="w" horiz-adv-x="2523" unicode="w"/><glyph d="M1778 0h-713l-174 311l-182 -311h-707l401 580l-442 571h748l182 -313l174 313h739l-430 -571z" glyph-name="x" horiz-adv-x="1779" unicode="x"/><glyph d="M741 -272h-612v362h424l-555 1061h690l223 -569l187 569h690l-428 -913q-129 -279 -256 -400q-68 -63 -144.5 -86.5t-218.5 -23.5z" glyph-name="y" horiz-adv-x="1781" unicode="y"/><glyph d="M1427 0h-1366v268l549 418h-530v465h1329v-360l-483 -394h501v-397z" glyph-name="z" horiz-adv-x="1486" unicode="z"/><glyph d="M520 1008v-107q0 -86 -20.5 -129t-81.5 -88q59 -41 80.5 -87t21.5 -132v-109q0 -82 21.5 -96t148.5 -14v-299l-117 -4q-25 -2 -110 -2t-132.5 10t-86.5 43q-66 51 -66 192v211q0 70 -20.5 102.5t-71.5 41.5v303q51 10 68.5 34.5t23.5 90.5v207q0 213 103 231t179 18 t169 -4l61 -2v-301q-20 2 -76 2t-75 -17t-19 -95z" glyph-name="braceleft" horiz-adv-x="804" unicode="{"/><glyph d="M287 1366h450v-1708h-450v1708z" glyph-name="bar" unicode="|"/><glyph d="M285 358v107q0 88 20.5 130t81.5 87q-59 41 -80.5 87t-21.5 132v109q0 76 -19.5 93t-109.5 17h-41v299l61 2l55 2q25 2 110 2t185.5 -21t100.5 -224v-211q0 -70 20.5 -102.5t71.5 -43.5v-301q-51 -10 -68.5 -34.5t-23.5 -90.5v-207q0 -213 -103.5 -231t-211.5 -18t-197 6 v301q19 -2 75 -2t75.5 17t19.5 95z" glyph-name="braceright" horiz-adv-x="804" unicode="}"/><glyph d="M518 1581q39 0 75 -10t216 -72q39 -12 65 -12t46 18.5t55 81.5l211 -178q-70 -174 -147 -252t-183 -78q-45 0 -301 86q-31 10 -55 11q-52 -1 -103 -101l-211 180q66 174 143 250t189 76z" glyph-name="asciitilde" horiz-adv-x="1366" unicode="~"/><glyph glyph-name="uni00A0" horiz-adv-x="614" unicode=" "/><glyph d="M801 170q0 -119 -64.5 -153.5t-278.5 -34.5t-277.5 35.5t-63.5 154.5q0 20 4 66l123 745h430l121 -745q6 -33 6 -68zM460 1454q126 0 195.5 -51t69.5 -141q0 -182 -266 -182.5t-266 182.5q0 92 70.5 142t196.5 50z" glyph-name="exclamdown" horiz-adv-x="917" unicode="¡"/><glyph d="M768 -166v266q-270 18 -412 82t-218.5 204t-76.5 331q0 238 121 381q154 182 586 207v245h168v-243q240 -4 528 -58l9 -450q-266 39 -413 39t-206 -16t-93 -58t-34 -110t61.5 -111t176.5 -43q193 0 508 65l-11 -385q-250 -80 -526 -84v-262h-168z" glyph-name="cent" horiz-adv-x="1529" unicode="¢"/><glyph d="M463 100q-137 0 -221 -129l-228 203q111 250 301 275l-30 139h-170v164h131l-8 49q-10 57 -11 108q0 240 158 368t509 128t503.5 -118t173.5 -392l-500 -31q0 139 -22.5 182.5t-98.5 43.5q-135 0 -135 -195q0 -33 6 -143h250v-164h-256q-8 -53 -37 -111q74 -31 150 -71 t113 -51t95 -11t101 23t102 82l267 -173q-35 -55 -69 -88.5t-97 -76.5q-201 -137 -420 -138q-76 0 -120 10.5t-204 63.5t-233 53z" glyph-name="sterling" horiz-adv-x="1644" unicode="£"/><glyph d="M209 693q0 132 65 259l-225 226l227 229l232 -231q123 57 250 57t248 -55l229 225l225 -225l-219 -222q70 -127 70 -261t-58 -255l220 -219l-226 -227l-217 217q-134 -70 -270 -70t-271 68l-219 -215l-225 225l221 221q-57 121 -57 253zM760 858q-68 0 -115 -47 t-47 -116.5t48 -118t116 -48.5t115 49t47 117t-48 116t-116 48z" glyph-name="currency" horiz-adv-x="1515" unicode="¤"/><glyph d="M438 367h-327v161h329l-61 111h-268v162h178l-312 565h691l139 -276l123 276h663l-305 -565h166v-162h-254l-61 -111h315v-161h-313v-367h-703v367z" glyph-name="yen" horiz-adv-x="1570" unicode="¥"/><glyph d="M287 1366h450v-756h-450v756zM287 313h450v-655h-450v655z" glyph-name="brokenbar" unicode="¦"/><glyph d="M711 1067q-125 0 -181.5 -15.5t-56.5 -54.5q0 -33 46.5 -44t242.5 -26t258.5 -28.5t101.5 -44.5q100 -84 100 -226t-83 -257q92 -98 92 -226q0 -207 -172 -305q-127 -68 -397 -68t-568 60v301q348 -33 469 -33t176.5 16.5t55.5 55.5q0 29 -31 39q-10 4 -395 49 q-182 23 -238 76q-88 84 -88 219t96 244q-102 90 -102 231q0 82 39 157t106 122q121 85 411 85t583 -59v-301q-340 33 -465 33zM850 547q0 76 -86 88q-53 7 -172 21t-174 22q-14 -35 -15 -51q0 -78 113 -90q260 -31 278 -33t44 -8q12 29 12 51z" glyph-name="section" horiz-adv-x="1269" unicode="§"/><glyph d="M86 1272v211h342v-211h-342zM596 1272v211h342v-211h-342z" glyph-name="dieresis" unicode="¨"/><glyph d="M395 681q0 357 445 357q154 0 368 -32v-267q-158 27 -259 27t-143 -25t-42 -81t42 -78.5t158 -22.5t232 29v-238q-158 -23 -301 -22q-262 0 -369 80q-131 94 -131 273zM846 1397q324 0 550 -211t226 -505t-229 -503t-551 -209t-550.5 209t-228.5 506t229.5 505t553.5 208 zM845 1214q-243 0 -414 -154.5t-171 -375.5t171 -376.5t412.5 -155.5t411.5 155.5t170 374.5t-168.5 375.5t-411.5 156.5z" glyph-name="copyright" horiz-adv-x="1685" unicode="©"/><glyph d="M1116 547h-428v74q-98 -91 -282 -91t-268.5 87.5t-84.5 273.5t88.5 275t274.5 89t272 -96v80h428v-692zM586 1004q-51 0 -81 -32t-30 -91t28.5 -94t80.5 -35t83 35t31 93t-30.5 91t-81.5 33z" glyph-name="ordfeminine" horiz-adv-x="1169" unicode="ª"/><glyph d="M268 176l-194 404l194 415h371l-190 -415l190 -404h-371zM834 176l-195 404l195 415h372l-192 -415l192 -404h-372z" glyph-name="guillemotleft" horiz-adv-x="1292" unicode="«"/><glyph d="M518 0v229h-450v392h886v-621h-436z" glyph-name="logicalnot" unicode="¬"/><glyph d="M696 395h-696v383h696v-383z" glyph-name="uni00AD" horiz-adv-x="696" unicode="­"/><glyph d="M752 342h-310v682h576q117 0 172 -45q74 -55 74 -147t-56.5 -144.5t-156.5 -62.5l194 -283h-325l-168 215v-215zM752 700h106q98 0 98 78q0 63 -77 64h-127v-142zM846 1397q324 0 550 -211t226 -505t-229 -503t-551 -209t-550.5 209t-228.5 506t229.5 505t553.5 208z M845 1214q-243 0 -414 -154.5t-171 -375.5t171 -376.5t412.5 -155.5t411.5 155.5t170 374.5t-168.5 375.5t-411.5 156.5z" glyph-name="registered" horiz-adv-x="1685" unicode="®"/><glyph d="M915 1268h-804v207h804v-207z" glyph-name="macron" unicode="¯"/><glyph d="M387.5 1393q147.5 0 248.5 -103.5t101 -249.5t-103.5 -249t-247.5 -103t-247.5 102.5t-103.5 248.5t102.5 250t250 104zM386 1194q-60 0 -104 -46t-44 -108t44 -107.5t103 -45.5t104.5 45.5t45.5 107.5t-44.5 108t-104.5 46z" glyph-name="degree" horiz-adv-x="770" unicode="°"/><glyph d="M31 838h354v366h317v-366h359v-312h-359v-188h-317v188h-354v312zM31 311h1030v-311h-1030v311z" glyph-name="plusminus" horiz-adv-x="1091" unicode="±"/><glyph d="M1034 547h-882v231q358 116 414.5 174t56.5 86q0 63 -74 64q-53 0 -75.5 -33t-22.5 -108h-318q-2 25 -2 65q0 186 135 281q113 75 337 75q225 0 327 -78t102 -204q0 -147 -162 -226q-49 -25 -194 -75h358v-252z" glyph-name="uni00B2" horiz-adv-x="1165" unicode="²"/><glyph d="M404 756q146 0 147 64q0 64 -176 65q-76 0 -164 -8v67l250 158h-318v264h858v-205l-258 -160q12 2 29 3q127 0 193.5 -51.5t66.5 -145.5q0 -133 -119 -205t-335 -72t-435 54l-14 209q129 -37 275 -37z" glyph-name="uni00B3" horiz-adv-x="1163" unicode="³"/><glyph d="M168 1268l143 239h711l-309 -239h-545z" glyph-name="acute" unicode="´"/><glyph d="M100 1151h596v-659q0 -98 27 -135.5t96.5 -37.5t96 37t26.5 136v659h598v-698q0 -244 -143 -353q-176 -129 -574 -129q-41 0 -147 4v-247h-576v1423z" glyph-name="uni00B5" horiz-adv-x="1638" unicode="µ"/><glyph d="M580 -231v897q-10 -2 -27 -2q-137 0 -249 84t-111 262q0 215 167 303q61 33 123 43t187 10h551v-1597h-273v1439h-96v-1439h-272z" glyph-name="paragraph" horiz-adv-x="1466" unicode="¶"/><glyph d="M362 772q137 0 203 -44t66 -137t-71 -143.5t-198 -50.5t-196.5 51.5t-69.5 141.5q0 182 266 182z" glyph-name="periodcentered" horiz-adv-x="727" unicode="·"/><glyph d="M598 -272h-428l262 327h422z" glyph-name="cedilla" unicode="¸"/><glyph d="M739 547h-434v434l-174 -55v295l201 145h407v-819z" glyph-name="uni00B9" horiz-adv-x="868" unicode="¹"/><glyph d="M580 1262q137 0 219 -17.5t149 -60.5q135 -90 135 -284t-124.5 -286t-392.5 -92t-391.5 91.5t-123.5 284.5t121 276q132 88 408 88zM571.5 1018q-63.5 0 -93 -28.5t-29.5 -92.5q0 -145 122.5 -145t122.5 143q0 63 -29.5 93t-93 30z" glyph-name="ordmasculine" horiz-adv-x="1132" unicode="º"/><glyph d="M1026 176h-373l193 404l-193 415h373l195 -415zM461 176h-373l191 404l-191 415h373l192 -415z" glyph-name="guillemotright" horiz-adv-x="1292" unicode="»"/><glyph d="M739 547h-434v434l-174 -55v295l201 145h407v-819zM1366 1366l-551 -1366h-201l549 1366h203zM2142 0h-428v115h-473v334l332 370h569v-461h117v-243h-117v-115zM1726 340v221l-182 -221h182z" glyph-name="onequarter" horiz-adv-x="2390" unicode="¼"/><glyph d="M739 547h-434v434l-174 -55v295l201 145h407v-819zM1366 1366l-551 -1366h-201l549 1366h203zM1241 479q0 357 475 357q224 0 326 -79t102 -214t-162 -215q-57 -27 -196 -76h360v-252h-884v231q358 116 414.5 174t56.5 87q0 66 -74 65q-51 0 -73.5 -32.5t-22.5 -110.5 h-320q-2 25 -2 65z" glyph-name="onehalf" horiz-adv-x="2275" unicode="½"/><glyph d="M404 756q146 0 147 64q0 64 -176 65q-76 0 -164 -8v67l250 158h-318v264h858v-205l-258 -160q12 2 29 3q127 0 193.5 -51.5t66.5 -145.5q0 -133 -119 -205t-335 -72t-435 54l-14 209q129 -37 275 -37zM1659 1366l-551 -1366h-201l549 1366h203zM2435 0h-428v115h-473v334 l332 370h569v-461h117v-243h-117v-115zM2019 340v221l-182 -221h182z" glyph-name="threequarters" horiz-adv-x="2682" unicode="¾"/><glyph d="M657 564q0 -63 51.5 -89t161.5 -26t248 28v-461q-236 -36 -522 -36t-410 73q-61 35 -96 104.5t-35 151.5t25.5 155.5t117.5 243.5t175 283h526q-7 -10 -97 -135t-117.5 -177t-27.5 -115zM646 1454q126 0 195.5 -51t69.5 -141q0 -182 -266 -182.5t-266 182.5 q0 92 70.5 142t196.5 50z" glyph-name="questiondown" horiz-adv-x="1171" unicode="¿"/><glyph d="M1962 0h-707l-49 176h-456l-50 -176h-716l436 1366h1112zM1124 549l-141 432l-147 -432h288zM760 1425l-201 168h590l149 -168h-538z" glyph-name="Agrave" horiz-adv-x="1939" unicode="À"/><glyph d="M1962 0h-707l-49 176h-456l-50 -176h-716l436 1366h1112zM1124 549l-141 432l-147 -432h288zM1180 1425h-539l150 168h589z" glyph-name="Aacute" horiz-adv-x="1939" unicode="Á"/><glyph d="M1962 0h-707l-49 176h-456l-50 -176h-716l436 1366h1112zM1124 549l-141 432l-147 -432h288zM1419 1423h-387l-63 70l-80 -70h-369l170 191h565z" glyph-name="Acircumflex" horiz-adv-x="1939" unicode="Â"/><glyph d="M1962 0h-707l-49 176h-456l-50 -176h-716l436 1366h1112zM1124 549l-141 432l-147 -432h288zM1128 1423q-57 0 -178 33t-166 33t-67 -45h-213q23 119 96.5 187.5t179.5 68.5q58 0 188 -33t176 -33t70 49h222q-35 -121 -116 -190.5t-192 -69.5z" glyph-name="Atilde" horiz-adv-x="1939" unicode="Ã"/><glyph d="M1962 0h-707l-49 176h-456l-50 -176h-716l436 1366h1112zM1124 549l-141 432l-147 -432h288zM522 1425v201h357v-201h-357zM1067 1425v201h356v-201h-356z" glyph-name="Adieresis" horiz-adv-x="1939" unicode="Ä"/><glyph d="M590 1405q0 111 92 159t294 48t291 -50.5t89 -156.5q0 -23 -4 -39h180l430 -1366h-707l-49 176h-456l-50 -176h-716l436 1366h174q-4 33 -4 39zM1065 1403q0 74 -89 74t-89 -78q0 -4 4 -33h170q4 33 4 37zM1124 549l-141 432l-147 -432h288z" glyph-name="Aring" horiz-adv-x="1939" unicode="Å"/><glyph d="M2437 0h-1411v178h-303l-51 -178h-688l505 1366h1948v-438h-708v-127h708v-328h-708v-115h708v-358zM1026 549v567l-199 -567h199z" glyph-name="AE" horiz-adv-x="2506" unicode="Æ"/><glyph d="M80 668q0 194 66.5 338.5t183.5 228.5q221 160 639 160q319 0 739 -64v-534q-305 53 -514 53t-293 -49t-84 -162t83.5 -158t313.5 -45t469 56v-472q-223 -39 -407 -45l-180 -247h-543l203 260q-166 16 -289 69q-180 80 -283.5 248.5t-103.5 362.5z" glyph-name="Ccedilla" horiz-adv-x="1753" unicode="Ç"/><glyph d="M1700 0h-1567v1366h1567v-438h-864v-127h864v-328h-864v-115h864v-358zM674 1425l-201 168h590l149 -168h-538z" glyph-name="Egrave" horiz-adv-x="1767" unicode="È"/><glyph d="M1700 0h-1567v1366h1567v-438h-864v-127h864v-328h-864v-115h864v-358zM1094 1425h-539l150 168h589z" glyph-name="Eacute" horiz-adv-x="1767" unicode="É"/><glyph d="M1700 0h-1567v1366h1567v-438h-864v-127h864v-328h-864v-115h864v-358zM1333 1423h-387l-63 70l-80 -70h-369l170 191h565z" glyph-name="Ecircumflex" horiz-adv-x="1767" unicode="Ê"/><glyph d="M1700 0h-1567v1366h1567v-438h-864v-127h864v-328h-864v-115h864v-358zM434 1425v201h357v-201h-357zM977 1425v201h356v-201h-356z" glyph-name="Edieresis" horiz-adv-x="1767" unicode="Ë"/><glyph d="M840 0h-703v1366h703v-1366zM281 1425l-203 168h590l149 -168h-536z" glyph-name="Igrave" horiz-adv-x="978" unicode="Ì"/><glyph d="M840 0h-703v1366h703v-1366zM698 1425h-538l149 168h590z" glyph-name="Iacute" horiz-adv-x="978" unicode="Í"/><glyph d="M842 0h-703v1366h703v-1366zM938 1423h-385l-64 70l-79 -70h-369l170 191h563z" glyph-name="Icircumflex" horiz-adv-x="978" unicode="Î"/><glyph d="M840 0h-703v1366h703v-1366zM84 1425v201h322v-201h-322zM571 1425v201h322v-201h-322z" glyph-name="Idieresis" horiz-adv-x="978" unicode="Ï"/><glyph d="M135 580h-88v206h88v580h1192q326 0 500 -177t174 -462q0 -362 -270 -557q-231 -170 -574 -170h-1022v580zM944 410q330 0 330 268q0 106 -60.5 161.5t-175.5 55.5h-200v-109h196v-206h-196v-170h106z" glyph-name="Eth" horiz-adv-x="2078" unicode="Ð"/><glyph d="M1890 0h-618l-475 612v-612h-664v1366h705l389 -571v571h663v-1366zM1171 1423q-57 0 -178 33t-166 33t-69 -45h-213q25 119 98.5 187.5t177.5 68.5q61 0 191 -33t164 -33q61 0 79 49h224q-33 -121 -116 -190.5t-192 -69.5z" glyph-name="Ntilde" horiz-adv-x="2025" unicode="Ñ"/><glyph d="M1042 1405q458 0 691 -179t233 -552q0 -176 -61.5 -318.5t-171.5 -222.5q-240 -172 -710 -172t-710 172q-233 170 -233 559t260 555q244 158 702 158zM1022 942q-115 0 -174.5 -67.5t-59.5 -196.5q0 -322 235 -322t234 320q1 266 -235 266zM813 1425l-201 168h590 l150 -168h-539z" glyph-name="Ograve" horiz-adv-x="2043" unicode="Ò"/><glyph d="M1042 1405q458 0 691 -179t233 -552q0 -176 -61.5 -318.5t-171.5 -222.5q-240 -172 -710 -172t-710 172q-233 170 -233 559t260 555q244 158 702 158zM1022 942q-115 0 -174.5 -67.5t-59.5 -196.5q0 -322 235 -322t234 320q1 266 -235 266zM1233 1425h-539l150 168h590z " glyph-name="Oacute" horiz-adv-x="2043" unicode="Ó"/><glyph d="M1042 1405q458 0 691 -179t233 -552q0 -176 -61.5 -318.5t-171.5 -222.5q-240 -172 -710 -172t-710 172q-233 170 -233 559t260 555q244 158 702 158zM1022 942q-115 0 -174.5 -67.5t-59.5 -196.5q0 -322 235 -322t234 320q1 266 -235 266zM1473 1423h-388l-63 70 l-80 -70h-369l170 191h566z" glyph-name="Ocircumflex" horiz-adv-x="2043" unicode="Ô"/><glyph d="M1042 1405q458 0 691 -179t233 -552q0 -176 -61.5 -318.5t-171.5 -222.5q-240 -172 -710 -172t-710 172q-233 170 -233 559t260 555q244 158 702 158zM1022 942q-115 0 -174.5 -67.5t-59.5 -196.5q0 -322 235 -322t234 320q1 266 -235 266zM1182 1423q-56 0 -178 33 t-166 33t-68 -45h-213q23 119 96.5 187.5t180.5 68.5q59 0 188 -33t176 -33t70 49h221q-35 -121 -116 -190.5t-191 -69.5z" glyph-name="Otilde" horiz-adv-x="2043" unicode="Õ"/><glyph d="M1042 1405q458 0 691 -179t233 -552q0 -176 -61.5 -318.5t-171.5 -222.5q-240 -172 -710 -172t-710 172q-233 170 -233 559t260 555q244 158 702 158zM1022 942q-115 0 -174.5 -67.5t-59.5 -196.5q0 -322 235 -322t234 320q1 266 -235 266zM535 1425v201h356v-201h-356z M1155 1425v201h356v-201h-356z" glyph-name="Odieresis" horiz-adv-x="2043" unicode="Ö"/><glyph d="M543 459l-281 -279l-219 219l281 281l-289 287l225 225l289 -289l280 283l220 -219l-281 -283l289 -289l-226 -225z" glyph-name="multiply" horiz-adv-x="1091" unicode="×"/><glyph d="M1966 682q0 -182 -60.5 -324.5t-172.5 -224.5q-241 -172 -687 -172t-669 131l-184 -139l-101 133l150 113q-162 180 -162 489q0 389 252 553t677 164t656 -133l188 141l101 -133l-150 -113q162 -174 162 -485zM1024 356q233 0 233 322q0 35 -6 74l-409 -310 q59 -86 182 -86zM1024 942q-236 0 -236 -264q1 -15 5 -64l376 285q-55 43 -145 43z" glyph-name="Oslash" horiz-adv-x="2043" unicode="Ø"/><glyph d="M127 1366h702v-840q0 -90 21 -118q33 -48 120 -48t120 48q20 29 20 118v840h702v-825q0 -174 -72.5 -372t-778.5 -198t-770 205t-64 383v807zM801 1425l-201 168h590l149 -168h-538z" glyph-name="Ugrave" horiz-adv-x="1939" unicode="Ù"/><glyph d="M127 1366h702v-840q0 -90 21 -118q33 -48 120 -48t120 48q20 29 20 118v840h702v-825q0 -174 -72.5 -372t-778.5 -198t-770 205t-64 383v807zM1139 1425h-539l150 168h589z" glyph-name="Uacute" horiz-adv-x="1939" unicode="Ú"/><glyph d="M127 1366h702v-840q0 -90 21 -118q33 -48 120 -48t120 48q20 29 20 118v840h702v-825q0 -174 -72.5 -372t-778.5 -198t-770 205t-64 383v807zM1419 1423h-387l-63 70l-80 -70h-369l170 191h565z" glyph-name="Ucircumflex" horiz-adv-x="1939" unicode="Û"/><glyph d="M127 1366h702v-840q0 -90 21 -118q33 -48 120 -48t120 48q20 29 20 118v840h702v-825q0 -174 -72.5 -372t-778.5 -198t-770 205t-64 383v807zM520 1425v201h357v-201h-357zM1063 1425v201h356v-201h-356z" glyph-name="Udieresis" horiz-adv-x="1939" unicode="Ü"/><glyph d="M1276 0h-701v393l-598 973h785l182 -414l164 414h758l-590 -973v-393zM1133 1425h-539l149 168h590z" glyph-name="Yacute" horiz-adv-x="1843" unicode="Ý"/><glyph d="M784 0h-702v1366h702v-137h582q252 0 390 -125t138 -352q0 -139 -56 -257t-159 -190q-188 -131 -557 -131h-338v-174zM784 549h228q197 0 196 153q0 63 -37.5 98.5t-107.5 35.5h-279v-287z" glyph-name="Thorn" horiz-adv-x="1929" unicode="Þ"/><glyph d="M793 0h-682v1108q0 201 158.5 273.5t592.5 72.5q250 0 388.5 -23.5t209.5 -78.5q115 -84 115 -258q0 -213 -166 -287q141 -27 202.5 -115t61.5 -264q0 -356 -152.5 -397t-316.5 -41t-303 10v350q14 -2 39 -2q100 0 100 94.5t-94 94.5q-12 0 -45 -5v439q80 8 80 89t-92 81 q-61 0 -78.5 -25.5t-17.5 -116.5v-999z" glyph-name="germandbls" horiz-adv-x="1736" unicode="ß"/><glyph d="M1757 0h-663v145q-94 -98 -198.5 -136t-275.5 -38t-360.5 81t-189.5 523q0 326 144 465q144 140 439 140t441 -191v162h663v-1151zM915.5 776q-90.5 0 -141.5 -57t-51 -164t51 -169t141.5 -62t141.5 62.5t51 167.5t-51 163.5t-141.5 58.5zM1260 1268h-547l-307 239h710z " glyph-name="agrave" horiz-adv-x="1826" unicode="à"/><glyph d="M1757 0h-663v145q-94 -98 -198.5 -136t-275.5 -38t-360.5 81t-189.5 523q0 326 144 465q144 140 439 140t441 -191v162h663v-1151zM915.5 776q-90.5 0 -141.5 -57t-51 -164t51 -169t141.5 -62t141.5 62.5t51 167.5t-51 163.5t-141.5 58.5zM569 1268l144 239h710 l-309 -239h-545z" glyph-name="aacute" horiz-adv-x="1826" unicode="á"/><glyph d="M1757 0h-663v145q-94 -98 -198.5 -136t-275.5 -38t-360.5 81t-189.5 523q0 326 144 465q144 140 439 140t441 -191v162h663v-1151zM915.5 776q-90.5 0 -141.5 -57t-51 -164t51 -169t141.5 -62t141.5 62.5t51 167.5t-51 163.5t-141.5 58.5zM1503 1268h-459l-129 118 l-137 -118h-454l225 223h745z" glyph-name="acircumflex" horiz-adv-x="1826" unicode="â"/><glyph d="M1757 0h-663v145q-94 -98 -198.5 -136t-275.5 -38t-360.5 81t-189.5 523q0 326 144 465q144 140 439 140t441 -191v162h663v-1151zM915.5 776q-90.5 0 -141.5 -57t-51 -164t51 -169t141.5 -62t141.5 62.5t51 167.5t-51 163.5t-141.5 58.5zM1071 1227q-55 0 -176 33 q-121 32 -166 32t-67 -45h-216q18 90 64 150q82 109 213 108q61 0 189 -34t165 -33q62 0 80 51h223q-35 -123 -115.5 -192.5t-193.5 -69.5z" glyph-name="atilde" horiz-adv-x="1826" unicode="ã"/><glyph d="M1757 0h-663v145q-94 -98 -198.5 -136t-275.5 -38t-360.5 81t-189.5 523q0 326 144 465q144 140 439 140t441 -191v162h663v-1151zM915.5 776q-90.5 0 -141.5 -57t-51 -164t51 -169t141.5 -62t141.5 62.5t51 167.5t-51 163.5t-141.5 58.5zM492 1272v211h342v-211h-342z M1001 1272v211h342v-211h-342z" glyph-name="adieresis" horiz-adv-x="1826" unicode="ä"/><glyph d="M1757 20h-663v146q-94 -98 -198.5 -137t-274.5 -39q-287 0 -419 146t-132 466t144 459t438 139t442 -190v161h663v-1151zM915.5 797q-90.5 0 -141.5 -58.5t-51 -164.5t51 -169t141.5 -63t141.5 63t51 169t-51 164.5t-141.5 58.5zM960 1671q200 0 289.5 -50t89.5 -160 t-90.5 -163t-290.5 -53t-291.5 52.5t-91.5 164.5t92.5 160.5t292.5 48.5zM960.5 1536q-88.5 0 -88.5 -74q0 -90 88.5 -90t88.5 90q0 74 -88.5 74z" glyph-name="aring" horiz-adv-x="1826" unicode="å"/><glyph d="M1581 1151v-162q53 43 121 94q78 53 186.5 75t306.5 22q406 0 576 -160q70 -63 109.5 -190.5t39.5 -276.5q0 -14 -4 -104h-907q0 -88 53.5 -122t192.5 -34q293 0 661 92l-139 -315q-231 -57 -373 -78t-320 -21t-274 37t-229 162v-170h-487v145q-94 -98 -198.5 -136 t-275.5 -38t-360.5 81t-189.5 523q0 326 144 465q144 140 439 140t441 -191v162h487zM915.5 776q-90.5 0 -141.5 -57t-51 -164t51 -169t141.5 -62t141.5 62.5t51 167.5t-51 163.5t-141.5 58.5zM2200 903q-106 0 -157 -45t-65 -145h410q-2 76 -29 114q-53 76 -159 76z" glyph-name="ae" horiz-adv-x="2985" unicode="æ"/><glyph d="M66 572q0 170 54 290.5t148 181.5q215 137 633 138q246 0 567 -60l9 -450q-252 39 -406 39q-154 1 -214 -15t-94 -58t-34 -110t62.5 -111.5t177.5 -43.5q193 0 508 65l-9 -383q-217 -72 -436 -82l-190 -245h-428l209 260q-164 23 -265 69q-139 63 -215.5 204t-76.5 311z " glyph-name="ccedilla" horiz-adv-x="1536" unicode="ç"/><glyph d="M907 1180q489 0 656 -209q51 -63 82.5 -179t31.5 -241q0 -12 -4 -102h-907q0 -88 53 -122t195 -34q290 0 659 92l-137 -315q-428 -98 -705 -99q-767 0 -765 582q0 160 61 293t168 205q188 129 612 129zM1145 713q-5 190 -197 190q-98 0 -148.5 -45t-64.5 -145h410z M1217 1268h-545l-310 239h711z" glyph-name="egrave" horiz-adv-x="1742" unicode="è"/><glyph d="M907 1180q489 0 656 -209q51 -63 82.5 -179t31.5 -241q0 -12 -4 -102h-907q0 -88 53 -122t195 -34q290 0 659 92l-137 -315q-428 -98 -705 -99q-767 0 -765 582q0 160 61 293t168 205q188 129 612 129zM1145 713q-5 190 -197 190q-98 0 -148.5 -45t-64.5 -145h410z M526 1268l144 239h710l-309 -239h-545z" glyph-name="eacute" horiz-adv-x="1742" unicode="é"/><glyph d="M907 1180q489 0 656 -209q51 -63 82.5 -179t31.5 -241q0 -12 -4 -102h-907q0 -88 53 -122t195 -34q290 0 659 92l-137 -315q-428 -98 -705 -99q-767 0 -765 582q0 160 61 293t168 205q188 129 612 129zM1145 713q-5 190 -197 190q-98 0 -148.5 -45t-64.5 -145h410z M1462 1268h-461l-127 118l-139 -118h-454l227 223h743z" glyph-name="ecircumflex" horiz-adv-x="1742" unicode="ê"/><glyph d="M907 1180q489 0 656 -209q51 -63 82.5 -179t31.5 -241q0 -12 -4 -102h-907q0 -88 53 -122t195 -34q290 0 659 92l-137 -315q-428 -98 -705 -99q-767 0 -765 582q0 160 61 293t168 205q188 129 612 129zM1145 713q-5 190 -197 190q-98 0 -148.5 -45t-64.5 -145h410z M444 1272v211h342v-211h-342zM956 1272v211h342v-211h-342z" glyph-name="edieresis" horiz-adv-x="1742" unicode="ë"/><glyph d="M774 0h-661v1171q121 -20 331 -20t330 20v-1171zM788 1268h-544l-310 239h711z" glyph-name="igrave" horiz-adv-x="884" unicode="ì"/><glyph d="M774 0h-661v1171q121 -20 331 -20t330 20v-1171zM98 1268l144 239h710l-309 -239h-545z" glyph-name="iacute" horiz-adv-x="884" unicode="í"/><glyph d="M774 0h-663v1171q121 -20 331.5 -20t331.5 20v-1171zM883 1268h-385l-54 125l-63 -125h-379l131 223h635z" glyph-name="icircumflex" horiz-adv-x="884" unicode="î"/><glyph d="M774 0h-663v1171q121 -20 331.5 -20t331.5 20v-1171zM59 1272v211h308v-211h-308zM520 1272v211h307v-211h-307z" glyph-name="idieresis" horiz-adv-x="884" unicode="ï"/><glyph d="M1704 522q0 -295 -205 -430q-195 -131 -617 -131t-619 134t-197 421t188 408q113 70 261.5 99.5t381.5 29.5q61 0 115 -2q-82 125 -191 254l342 196q53 -63 84 -102l17 -23l188 125l203 -272l-199 -131l17 -23q104 -169 144 -237t63.5 -140.5t23.5 -175.5zM891 662 q-211 0 -211 -148q0 -186 211 -186t211 184q0 150 -211 150z" glyph-name="eth" horiz-adv-x="1769" unicode="ð"/><glyph d="M1772 0h-664v563q0 84 -37 121t-126 37t-130 -41t-41 -131v-549h-663v1151h663v-174q84 113 195.5 158t300.5 45q256 0 379 -115t123 -350v-715zM1100 1227q-57 0 -178 33q-121 32 -166 32t-68 -45h-213q18 94 62 150q86 109 213 108q66 0 192 -34t164 -33q60 0 80 51 h221q-35 -123 -116 -192.5t-191 -69.5z" glyph-name="ntilde" horiz-adv-x="1882" unicode="ñ"/><glyph d="M896 1190q232 0 362.5 -28.5t232.5 -102.5q213 -151 213 -473t-196 -474t-625 -151q-428 0 -622.5 150.5t-194.5 490.5q0 303 190 440q106 78 257 113t383 35zM891 799q-211 0 -211 -213q0 -258 211 -258t211 254q0 113 -51 165t-160 52zM1229 1268h-545l-309 239h710z " glyph-name="ograve" horiz-adv-x="1769" unicode="ò"/><glyph d="M896 1190q232 0 362.5 -28.5t232.5 -102.5q213 -151 213 -473t-196 -474t-625 -151q-428 0 -622.5 150.5t-194.5 490.5q0 303 190 440q106 78 257 113t383 35zM891 799q-211 0 -211 -213q0 -258 211 -258t211 254q0 113 -51 165t-160 52zM539 1268l143 239h711l-308 -239 h-546z" glyph-name="oacute" horiz-adv-x="1769" unicode="ó"/><glyph d="M896 1190q232 0 362.5 -28.5t232.5 -102.5q213 -151 213 -473t-196 -474t-625 -151q-428 0 -622.5 150.5t-194.5 490.5q0 303 190 440q106 78 257 113t383 35zM891 799q-211 0 -211 -213q0 -258 211 -258t211 254q0 113 -51 165t-160 52zM1475 1268h-459l-129 118 l-137 -118h-455l225 223h744z" glyph-name="ocircumflex" horiz-adv-x="1769" unicode="ô"/><glyph d="M896 1190q232 0 362.5 -28.5t232.5 -102.5q213 -151 213 -473t-196 -474t-625 -151q-428 0 -622.5 150.5t-194.5 490.5q0 303 190 440q106 78 257 113t383 35zM891 799q-211 0 -211 -213q0 -258 211 -258t211 254q0 113 -51 165t-160 52zM1042 1227q-55 0 -177 33 q-122 32 -166 32t-68 -45h-213q18 94 63 150q82 109 213 108q64 0 190 -34q126 -33 175 -33t69 51h222q-33 -123 -115 -192.5t-193 -69.5z" glyph-name="otilde" horiz-adv-x="1769" unicode="õ"/><glyph d="M896 1190q232 0 362.5 -28.5t232.5 -102.5q213 -151 213 -473t-196 -474t-625 -151q-428 0 -622.5 150.5t-194.5 490.5q0 303 190 440q106 78 257 113t383 35zM891 799q-211 0 -211 -213q0 -258 211 -258t211 254q0 113 -51 165t-160 52zM459 1272v211h342v-211h-342z M969 1272v211h342v-211h-342z" glyph-name="odieresis" horiz-adv-x="1769" unicode="ö"/><glyph d="M31 838h1030v-312h-1030v312zM545 1245q137 0 202.5 -44t65.5 -136t-70.5 -142.5t-197.5 -50.5t-196.5 51.5t-69.5 141.5q0 180 266 180zM545 494q137 0 202.5 -44t65.5 -138t-70.5 -143.5t-197.5 -49.5t-196.5 51t-69.5 141q0 183 266 183z" glyph-name="divide" horiz-adv-x="1091" unicode="÷"/><glyph d="M1729 588q0 -324 -203 -482q-190 -145 -588 -145t-600 117l-184 -129l-88 127l149 104q-123 143 -123 414q0 309 189 448q109 80 257 114t388 34q389 0 565 -113l174 123l90 -127l-145 -102q119 -137 119 -383zM918 328q211 0 210 254q0 33 -2 49l-358 -252 q53 -51 150 -51zM915 799q-209 0 -208 -215q0 -33 2 -56l342 240q-47 31 -136 31z" glyph-name="oslash" horiz-adv-x="1820" unicode="ø"/><glyph d="M1710 1151v-698q0 -244 -160 -353q-197 -129 -640 -129t-640 129q-160 109 -159 353v698h663v-659q0 -98 30 -135.5t107.5 -37.5t106.5 37t29 136v659h663zM1255 1268h-546l-308 239h711z" glyph-name="ugrave" horiz-adv-x="1820" unicode="ù"/><glyph d="M1710 1151v-698q0 -244 -160 -353q-197 -129 -640 -129t-640 129q-160 109 -159 353v698h663v-659q0 -98 30 -135.5t107.5 -37.5t106.5 37t29 136v659h663zM565 1268l144 239h710l-309 -239h-545z" glyph-name="uacute" horiz-adv-x="1820" unicode="ú"/><glyph d="M1710 1151v-698q0 -244 -160 -353q-197 -129 -640 -129t-640 129q-160 109 -159 353v698h663v-659q0 -98 30 -135.5t107.5 -37.5t106.5 37t29 136v659h663zM1501 1268h-461l-129 118l-137 -118h-455l228 223h743z" glyph-name="ucircumflex" horiz-adv-x="1820" unicode="û"/><glyph d="M1710 1151v-698q0 -244 -160 -353q-197 -129 -640 -129t-640 129q-160 109 -159 353v698h663v-659q0 -98 30 -135.5t107.5 -37.5t106.5 37t29 136v659h663zM483 1272v211h342v-211h-342zM995 1272v211h342v-211h-342z" glyph-name="udieresis" horiz-adv-x="1820" unicode="ü"/><glyph d="M741 -272h-612v362h424l-555 1061h690l223 -569l187 569h690l-428 -913q-129 -279 -256 -400q-68 -63 -144.5 -86.5t-218.5 -23.5zM547 1268l143 239h711l-309 -239h-545z" glyph-name="yacute" horiz-adv-x="1781" unicode="ý"/><glyph d="M111 -272v1695h663v-434q145 191 440 191q296 0 440 -140t144 -465q0 -256 -92 -407q-66 -102 -176.5 -149.5t-281.5 -47.5t-275.5 38t-198.5 136v-417h-663zM952 776q-90 0 -141 -58t-51 -164t51 -168t141 -62t141.5 62.5t51.5 167.5t-51.5 163.5t-141.5 58.5z" glyph-name="thorn" horiz-adv-x="1863" unicode="þ"/><glyph d="M741 -272h-612v362h424l-555 1061h690l223 -569l187 569h690l-428 -913q-129 -279 -256 -400q-68 -63 -144.5 -86.5t-218.5 -23.5zM465 1272v211h342v-211h-342zM975 1272v211h342v-211h-342z" glyph-name="ydieresis" horiz-adv-x="1781" unicode="ÿ"/><glyph d="M1962 0h-707l-49 176h-456l-50 -176h-716l436 1366h1112zM1124 549l-141 432l-147 -432h288zM1401 1425h-862v207h862v-207z" glyph-name="Amacron" horiz-adv-x="1939" unicode="Ā"/><glyph d="M1757 0h-663v145q-94 -98 -198.5 -136t-275.5 -38t-360.5 81t-189.5 523q0 326 144 465q144 140 439 140t441 -191v162h663v-1151zM915.5 776q-90.5 0 -141.5 -57t-51 -164t51 -169t141.5 -62t141.5 62.5t51 167.5t-51 163.5t-141.5 58.5zM1317 1268h-805v207h805v-207z " glyph-name="amacron" horiz-adv-x="1826" unicode="ā"/><glyph d="M1962 0h-707l-49 176h-456l-50 -176h-716l436 1366h1112zM1124 549l-141 432l-147 -432h288zM970 1604q108 0 160 17t72 58h180q-6 -98 -69 -159q-102 -100 -343 -100t-343 100q-64 59 -72 159h182q20 -41 72.5 -58t160.5 -17z" glyph-name="Abreve" horiz-adv-x="1939" unicode="Ă"/><glyph d="M1757 0h-663v145q-94 -98 -198.5 -136t-275.5 -38t-360.5 81t-189.5 523q0 326 144 465q144 140 439 140t441 -191v162h663v-1151zM915.5 776q-90.5 0 -141.5 -57t-51 -164t51 -169t141.5 -62t141.5 62.5t51 167.5t-51 163.5t-141.5 58.5zM913.5 1450q137.5 0 203 24.5 t87.5 86.5h205q-6 -115 -84 -191q-127 -121 -413 -121t-408 121q-78 72 -86 191h205q23 -61 88 -86t202.5 -25z" glyph-name="abreve" horiz-adv-x="1826" unicode="ă"/><glyph d="M1886 -145q0 -76 105 -76q12 0 53 6v-180q-55 -8 -111 -8q-119 0 -186.5 50t-67.5 147t95 206h-519l-49 176h-456l-50 -176h-716l436 1366h1112l430 -1366q-49 -63 -62.5 -90t-13.5 -55zM1124 549l-141 432l-147 -432h288z" glyph-name="Aogonek" horiz-adv-x="1939" unicode="Ą"/><glyph d="M1757 1151v-1151q-49 -61 -63.5 -89t-14.5 -56q0 -76 105 -76q12 0 53 6v-180q-55 -8 -108 -8q-121 0 -188.5 50t-67.5 145t96 208h-475v145q-94 -98 -198.5 -136t-275.5 -38t-360.5 81t-189.5 523q0 326 144 465q144 140 439 140t441 -191v162h663zM915.5 776 q-90.5 0 -141.5 -57t-51 -164t51 -169t141.5 -62t141.5 62.5t51 167.5t-51 163.5t-141.5 58.5z" glyph-name="aogonek" horiz-adv-x="1826" unicode="ą"/><glyph d="M1095 -29q-299 0 -465.5 36t-288.5 125t-191.5 238.5t-69.5 320.5t66.5 315.5t183.5 228.5q221 160 639 160q319 0 739 -64v-534q-311 53 -517 53t-290 -49t-84 -162t84 -158t313 -45t469 56v-474q-289 -47 -588 -47zM1167 1425h-538l151 168h590z" glyph-name="Cacute" horiz-adv-x="1753" unicode="Ć"/><glyph d="M871 -31q-325 0 -513 88q-139 63 -215.5 204t-76.5 311t54 290.5t148 181.5q215 137 633 138q248 0 567 -60l9 -450q-254 39 -407 39q-153 1 -213 -15t-94 -58t-34 -110t62.5 -111.5t177.5 -43.5q191 -1 508 65l-9 -383q-272 -86 -597 -86zM506 1268l143 239h709 l-307 -239h-545z" glyph-name="cacute" horiz-adv-x="1536" unicode="ć"/><glyph d="M1095 -29q-299 0 -465.5 36t-288.5 125t-191.5 238.5t-69.5 320.5t66.5 315.5t183.5 228.5q221 160 639 160q319 0 739 -64v-534q-311 53 -517 53t-290 -49t-84 -162t84 -158t313 -45t469 56v-474q-289 -47 -588 -47zM1407 1423h-385l-64 70l-79 -70h-369l170 191h563z " glyph-name="Ccircumflex" horiz-adv-x="1753" unicode="Ĉ"/><glyph d="M1095 -29q-299 0 -465.5 36t-288.5 125t-191.5 238.5t-69.5 320.5t66.5 315.5t183.5 228.5q221 160 639 160q319 0 739 -64v-534q-311 53 -517 53t-290 -49t-84 -162t84 -158t313 -45t469 56v-474q-289 -47 -588 -47zM780 1425v201h357v-201h-357z" glyph-name="Cdotaccent" horiz-adv-x="1753" unicode="Ċ"/><glyph d="M871 -31q-325 0 -513 88q-139 63 -215.5 204t-76.5 311t54 290.5t148 181.5q215 137 633 138q248 0 567 -60l9 -450q-254 39 -407 39q-153 1 -213 -15t-94 -58t-34 -110t62.5 -111.5t177.5 -43.5q191 -1 508 65l-9 -383q-272 -86 -597 -86zM680 1272v211h342v-211h-342z " glyph-name="cdotaccent" horiz-adv-x="1536" unicode="ċ"/><glyph d="M1095 -29q-299 0 -465.5 36t-288.5 125t-191.5 238.5t-69.5 320.5t66.5 315.5t183.5 228.5q221 160 639 160q319 0 739 -64v-534q-311 53 -517 53t-290 -49t-84 -162t84 -158t313 -45t469 56v-474q-289 -47 -588 -47zM1407 1614l-164 -191h-563l-170 191h369l79 -70 l64 70h385z" glyph-name="Ccaron" horiz-adv-x="1753" unicode="Č"/><glyph d="M871 -31q-325 0 -513 88q-139 63 -215.5 204t-76.5 311t54 290.5t148 181.5q215 137 633 138q248 0 567 -60l9 -450q-254 39 -407 39q-153 1 -213 -15t-94 -58t-34 -110t62.5 -111.5t177.5 -43.5q191 -1 508 65l-9 -383q-272 -86 -597 -86zM1440 1491l-209 -223h-746 l-225 223h455l137 -119l129 119h459z" glyph-name="ccaron" horiz-adv-x="1536" unicode="č"/><glyph d="M133 0v1366h1192q326 0 500 -177t174 -462q0 -362 -270 -557q-231 -170 -574 -170h-1022zM942 410q330 0 330 266q0 219 -236 219h-200v-485h106zM1352 1614l-164 -191h-565l-170 191h370l78 -70l66 70h385z" glyph-name="Dcaron" horiz-adv-x="2078" unicode="Ď"/><glyph d="M1753 0h-663v145q-94 -98 -199 -136t-275 -38q-334 0 -458 197q-92 145 -92 407q0 326 144 465q144 140 439 140t441 -191v434h663v-1423zM911 776q-90 0 -141 -57t-51 -164t51 -169t141 -62t141.5 62.5t51.5 167.5t-51.5 163.5t-141.5 58.5zM2316 1423l-211 -479h-284 l98 479h397z" glyph-name="dcaron" horiz-adv-x="2275" unicode="ď"/><glyph d="M135 580h-88v206h88v580h1192q326 0 500 -177t174 -462q0 -362 -270 -557q-231 -170 -574 -170h-1022v580zM944 410q330 0 330 268q0 106 -60.5 161.5t-175.5 55.5h-200v-109h196v-206h-196v-170h106z" glyph-name="Dcroat" horiz-adv-x="2078" unicode="Đ"/><glyph d="M1753 1296h98v-206h-98v-1090h-663v145q-94 -98 -199 -136t-276 -38t-360 81t-189 523q0 326 144 465q144 140 437 140t443 -191v434h663v-127zM911 776q-90 0 -141 -57t-51 -164t51 -169t141 -62t141.5 62.5t51.5 167.5t-51.5 163.5t-141.5 58.5z" glyph-name="dcroat" horiz-adv-x="1863" unicode="đ"/><glyph d="M1700 0h-1567v1366h1567v-438h-864v-127h864v-328h-864v-115h864v-358zM1341 1425h-862v207h862v-207z" glyph-name="Emacron" horiz-adv-x="1767" unicode="Ē"/><glyph d="M907 1180q489 0 656 -209q51 -63 82.5 -179t31.5 -241q0 -12 -4 -102h-907q0 -88 53 -122t195 -34q290 0 659 92l-137 -315q-428 -98 -705 -99q-767 0 -765 582q0 160 61 293t168 205q188 129 612 129zM1145 713q-5 190 -197 190q-98 0 -148.5 -45t-64.5 -145h410z M1274 1268h-805v207h805v-207z" glyph-name="emacron" horiz-adv-x="1742" unicode="ē"/><glyph d="M1700 0h-1567v1366h1567v-438h-864v-127h864v-328h-864v-115h864v-358zM884 1604q108 0 160 17t70 58h182q-6 -98 -69 -159q-106 -100 -345 -100t-341 100q-66 63 -72 159h182q20 -41 72.5 -58t160.5 -17z" glyph-name="Ebreve" horiz-adv-x="1767" unicode="Ĕ"/><glyph d="M907 1180q489 0 656 -209q51 -63 82.5 -179t31.5 -241q0 -12 -4 -102h-907q0 -88 53 -122t195 -34q290 0 659 92l-137 -315q-428 -98 -705 -99q-767 0 -765 582q0 160 61 293t168 205q188 129 612 129zM1145 713q-5 190 -197 190q-98 0 -148.5 -45t-64.5 -145h410z M899 1450q137 0 202.5 24.5t88.5 86.5h205q-8 -119 -86 -191q-123 -121 -409 -121t-413 121q-78 76 -84 191h205q23 -61 88.5 -86t202.5 -25z" glyph-name="ebreve" horiz-adv-x="1742" unicode="ĕ"/><glyph d="M1700 0h-1567v1366h1567v-438h-864v-127h864v-328h-864v-115h864v-358zM705 1425v201h356v-201h-356z" glyph-name="Edotaccent" horiz-adv-x="1767" unicode="Ė"/><glyph d="M907 1180q489 0 656 -209q51 -63 82.5 -179t31.5 -241q0 -12 -4 -102h-907q0 -88 53 -122t195 -34q290 0 659 92l-137 -315q-428 -98 -705 -99q-767 0 -765 582q0 160 61 293t168 205q188 129 612 129zM1145 713q-5 190 -197 190q-98 0 -148.5 -45t-64.5 -145h410z M700 1272v211h342v-211h-342z" glyph-name="edotaccent" horiz-adv-x="1742" unicode="ė"/><glyph d="M1700 358v-358q-49 -61 -63.5 -89t-14.5 -56q0 -76 104 -76q12 0 54 6v-180q-55 -8 -109 -8q-121 0 -188.5 50t-67.5 145t96 208h-1378v1366h1567v-438h-864v-127h864v-328h-864v-115h864z" glyph-name="Eogonek" horiz-adv-x="1767" unicode="Ę"/><glyph d="M1214 -121q0 -88 105 -88q12 0 53 6v-178q-51 -10 -110 -10q-119 0 -186.5 51t-67.5 139t71 187q-141 -14 -252 -15q-362 0 -563 140q-199 141 -198 442q0 160 61 293t168 205q188 129 612 129q489 0 656 -209q51 -63 82.5 -179t31.5 -241q0 -12 -4 -102h-907 q0 -88 53 -122t193 -34q292 0 661 92l-139 -315q-135 -33 -191 -47q-129 -31 -129 -144zM958 903q-108 0 -158.5 -45t-64.5 -145h410q-2 74 -29 114q-50 76 -158 76z" glyph-name="eogonek" horiz-adv-x="1742" unicode="ę"/><glyph d="M1700 0h-1567v1366h1567v-438h-864v-127h864v-328h-864v-115h864v-358zM1333 1614l-164 -191h-565l-170 191h369l80 -70l63 70h387z" glyph-name="Ecaron" horiz-adv-x="1767" unicode="Ě"/><glyph d="M907 1180q489 0 656 -209q51 -63 82.5 -179t31.5 -241q0 -12 -4 -102h-907q0 -88 53 -122t195 -34q290 0 659 92l-137 -315q-428 -98 -705 -99q-767 0 -765 582q0 160 61 293t168 205q188 129 612 129zM1145 713q-5 190 -197 190q-98 0 -148.5 -45t-64.5 -145h410z M1462 1491l-211 -223h-743l-227 223h454l139 -119l127 119h461z" glyph-name="ecaron" horiz-adv-x="1742" unicode="ě"/><glyph d="M1782 688v-616q-426 -100 -738 -101q-422 0 -673 142q-291 164 -291 575q0 362 252 541q233 166 647 166t780 -84v-475q-293 59 -543 59t-352 -72q-108 -70 -108 -208t83 -211.5t224 -73.5q23 0 84 4v354h635zM1434 1423h-385l-64 70l-80 -70h-368l170 191h563z" glyph-name="Gcircumflex" horiz-adv-x="1886" unicode="Ĝ"/><glyph d="M1765 1151v-936q0 -270 -186 -390t-797 -120q-274 0 -596 29l-36 313q252 -59 553 -59t374 100q25 33 25 102q-100 -57 -201.5 -80.5t-249.5 -23.5q-301 0 -432 117q-153 135 -153 429t155 431q135 117 426 117q176 0 280.5 -38t174.5 -126v135h663zM898 856 q-89 0 -140 -59t-51 -165t51 -168.5t141 -62.5t141.5 62.5t51.5 168.5t-52.5 165t-141.5 59zM1528 1268h-459l-129 118l-137 -118h-455l225 223h744z" glyph-name="gcircumflex" horiz-adv-x="1875" unicode="ĝ"/><glyph d="M1782 688v-616q-426 -100 -738 -101q-422 0 -673 142q-291 164 -291 575q0 362 252 541q233 166 647 166t780 -84v-475q-293 59 -543 59t-352 -72q-108 -70 -108 -208t83 -211.5t224 -73.5q23 0 84 4v354h635zM985.5 1604q108.5 0 159.5 17t72 58h182q-6 -96 -72 -159 q-102 -100 -342 -100.5t-342 100.5q-66 63 -72 159h183q20 -41 71.5 -58t160 -17z" glyph-name="Gbreve" horiz-adv-x="1886" unicode="Ğ"/><glyph d="M1765 1151v-936q0 -270 -186 -390t-797 -120q-274 0 -596 29l-36 313q252 -59 553 -59t374 100q25 33 25 102q-100 -57 -201.5 -80.5t-249.5 -23.5q-301 0 -432 117q-153 135 -153 429t155 431q135 117 426 117q176 0 280.5 -38t174.5 -126v135h663zM898 856 q-89 0 -140 -59t-51 -165t51 -168.5t141 -62.5t141.5 62.5t51.5 168.5t-52.5 165t-141.5 59zM938 1450q137 0 202.5 24.5t88.5 86.5h205q-8 -119 -86 -191q-123 -121 -409 -121t-413 121q-78 76 -84 191h205q23 -61 88.5 -86t202.5 -25z" glyph-name="gbreve" horiz-adv-x="1875" unicode="ğ"/><glyph d="M1782 688v-616q-426 -100 -738 -101q-422 0 -673 142q-291 164 -291 575q0 362 252 541q233 166 647 166t780 -84v-475q-293 59 -543 59t-352 -72q-108 -70 -108 -208t83 -211.5t224 -73.5q23 0 84 4v354h635zM807 1425v201h356v-201h-356z" glyph-name="Gdotaccent" horiz-adv-x="1886" unicode="Ġ"/><glyph d="M1765 1151v-936q0 -270 -186 -390t-797 -120q-274 0 -596 29l-36 313q252 -59 553 -59t374 100q25 33 25 102q-100 -57 -201.5 -80.5t-249.5 -23.5q-301 0 -432 117q-153 135 -153 429t155 431q135 117 426 117q176 0 280.5 -38t174.5 -126v135h663zM898 856 q-89 0 -140 -59t-51 -165t51 -168.5t141 -62.5t141.5 62.5t51.5 168.5t-52.5 165t-141.5 59zM768 1272v211h342v-211h-342z" glyph-name="gdotaccent" horiz-adv-x="1875" unicode="ġ"/><glyph d="M1782 688v-616q-426 -100 -738 -101q-422 0 -673 142q-291 164 -291 575q0 362 252 541q233 166 647 166t780 -84v-475q-293 59 -543 59t-352 -72q-108 -70 -108 -208t83 -211.5t224 -73.5q23 0 84 4v354h635zM1331 -82l-198 -225h-476l84 225h590z" glyph-name="Gcommaaccent" horiz-adv-x="1886" unicode="Ģ"/><glyph d="M1765 1151v-936q0 -270 -186 -390t-797 -120q-274 0 -596 29l-36 313q252 -59 553 -59t374 100q25 33 25 102q-100 -57 -201.5 -80.5t-249.5 -23.5q-301 0 -432 117q-153 135 -153 429t155 431q135 117 426 117q176 0 280.5 -38t174.5 -126v135h663zM898 856 q-89 0 -140 -59t-51 -165t51 -168.5t141 -62.5t141.5 62.5t51.5 168.5t-52.5 165t-141.5 59zM1364 1507l-143 -239h-711l309 239h545z" glyph-name="gcommaaccent" horiz-adv-x="1875" unicode="ģ"/><glyph d="M1890 0h-702v424h-352v-424h-703v1366h703v-483h352v483h702v-1366zM1460 1423h-385l-63 70l-80 -70h-369l170 191h563z" glyph-name="Hcircumflex" horiz-adv-x="2025" unicode="Ĥ"/><glyph d="M840 0h-703v1366h703v-1366zM922 1425h-865v207h865v-207z" glyph-name="Imacron" horiz-adv-x="978" unicode="Ī"/><glyph d="M772 0h-661v1171q121 -20 331 -20t330 20v-1171zM844 1268h-805v207h805v-207z" glyph-name="imacron" horiz-adv-x="884" unicode="ī"/><glyph d="M840 1366v-1366q-49 -63 -62.5 -90t-13.5 -55q0 -76 104 -76q12 0 54 6v-180q-55 -8 -111 -8q-119 0 -186.5 50t-67.5 145t94 208h-514v1366h703z" glyph-name="Iogonek" horiz-adv-x="978" unicode="Į"/><glyph d="M698 -145q0 -76 105 -76q12 0 53 6v-180q-55 -8 -111 -8q-119 0 -186 50t-67 145t94 208h-475v1171q121 -20 331.5 -20t331.5 20v-1171q-49 -63 -62.5 -90t-13.5 -55zM774 1401v-127q0 -35 -15.5 -46t-66.5 -11h-477q-51 0 -66.5 11t-15.5 46v127q0 35 15.5 46t66.5 11 h477q51 0 66.5 -11t15.5 -46z" glyph-name="iogonek" horiz-adv-x="884" unicode="į"/><glyph d="M840 0h-703v1366h703v-1366zM309 1425v201h357v-201h-357z" glyph-name="Idotaccent" horiz-adv-x="978" unicode="İ"/><glyph d="M774 0h-663v1171q121 -20 331.5 -20t331.5 20v-1171z" glyph-name="dotlessi" horiz-adv-x="884" unicode="ı"/><glyph d="M840 0h-703v1366h703v-1366zM1468 682v684h703v-913q0 -252 -151.5 -367t-483.5 -115q-258 1 -526 58v454q134 -35 250 -35t162 47.5t46 186.5z" glyph-name="IJ" horiz-adv-x="2297" unicode="Ĳ"/><glyph d="M774 0h-663v1171q121 -20 331.5 -20t331.5 20v-1171zM774 1401v-127q0 -35 -15.5 -46t-66.5 -11h-477q-51 0 -66.5 11t-15.5 46v127q0 35 15.5 46t66.5 11h477q51 0 66.5 -11t15.5 -46zM918 53q68 0 86 51q6 20 6 123v944q130 -20 332 -20t331 20v-997 q0 -152 -22.5 -228.5t-80.5 -127.5t-160 -70.5t-240 -19.5t-310 6v325q49 -6 58 -6zM1673 1401v-127q0 -37 -14 -47t-68 -10h-477q-51 0 -66.5 11t-15.5 46v127q0 35 15.5 46t66.5 11h477q53 0 67.5 -10t14.5 -47z" glyph-name="ij" horiz-adv-x="1771" unicode="ĳ"/><glyph d="M836 0h-703v1366h703v-526l335 526h832l-573 -702l536 -664h-795l-335 436v-436zM1315 -82l-197 -225h-477l84 225h590z" glyph-name="Kcommaaccent" horiz-adv-x="1966" unicode="Ķ"/><glyph d="M774 0h-663v1423h663v-745l248 473h770l-436 -584l354 -567h-688l-248 387v-387zM1184 -82l-199 -225h-420l84 225h535z" glyph-name="kcommaaccent" horiz-adv-x="1757" unicode="ķ"/><glyph d="M1434 0h-1301v1366h703v-883h598v-483zM698 1425h-538l149 168h590z" glyph-name="Lacute" horiz-adv-x="1478" unicode="Ĺ"/><glyph d="M774 0h-663v1423h663v-1423zM651 1483h-538l149 168h592z" glyph-name="lacute" horiz-adv-x="884" unicode="ĺ"/><glyph d="M1434 0h-1301v1366h703v-883h598v-483zM1071 -82l-199 -225h-475l84 225h590z" glyph-name="Lcommaaccent" horiz-adv-x="1478" unicode="Ļ"/><glyph d="M774 0h-663v1423h663v-1423zM748 -82l-199 -225h-420l84 225h535z" glyph-name="lcommaaccent" horiz-adv-x="884" unicode="ļ"/><glyph d="M1434 0h-1301v1366h703v-883h598v-483zM1477 1366l-211 -481h-285l98 481h398z" glyph-name="Lcaron" horiz-adv-x="1478" unicode="Ľ"/><glyph d="M774 0h-663v1423h663v-1423zM1337 1423l-211 -479h-284l98 479h397z" glyph-name="lcaron" horiz-adv-x="1296" unicode="ľ"/><glyph d="M1434 0h-1301v1366h703v-883h598v-483zM1216.5 1026q264.5 0 264.5 -201q0 -102 -70 -157.5t-195 -55.5t-194.5 56.5t-69.5 156.5q0 201 264.5 201z" glyph-name="Ldot" horiz-adv-x="1478" unicode="Ŀ"/><glyph d="M774 0h-663v1423h663v-1423zM885 688q0 201 221 201t292.5 -48.5t71.5 -150.5t-77.5 -157.5t-215.5 -55.5t-215 56.5t-77 154.5z" glyph-name="ldot" horiz-adv-x="1470" unicode="ŀ"/><glyph d="M836 483h598v-483h-1301v303l-110 -72v310l110 71v754h703v-358l245 157v-309l-245 -158v-215z" glyph-name="Lslash" horiz-adv-x="1478" unicode="Ł"/><glyph d="M111 1423h663v-329l86 55v-309l-86 -56v-784h-663v414l-88 -58v310l88 57v700z" glyph-name="lslash" horiz-adv-x="884" unicode="ł"/><glyph d="M1890 0h-618l-475 612v-612h-664v1366h705l389 -571v571h663v-1366zM1180 1425h-539l152 168h589z" glyph-name="Nacute" horiz-adv-x="2025" unicode="Ń"/><glyph d="M1772 0h-664v563q0 84 -37 121t-126 37t-130 -41t-41 -131v-549h-663v1151h663v-174q84 113 195.5 158t300.5 45q256 0 379 -115t123 -350v-715zM596 1268l143 239h711l-309 -239h-545z" glyph-name="nacute" horiz-adv-x="1882" unicode="ń"/><glyph d="M1890 0h-618l-475 612v-612h-664v1366h705l389 -571v571h663v-1366zM1343 -82l-196 -225h-477l84 225h589z" glyph-name="Ncommaaccent" horiz-adv-x="2025" unicode="Ņ"/><glyph d="M1772 0h-664v563q0 84 -37 121t-126 37t-130 -41t-41 -131v-549h-663v1151h663v-174q84 113 195.5 158t300.5 45q256 0 379 -115t123 -350v-715zM1245 -82l-196 -225h-422l84 225h534z" glyph-name="ncommaaccent" horiz-adv-x="1882" unicode="ņ"/><glyph d="M1890 0h-618l-475 612v-612h-664v1366h705l389 -571v571h663v-1366zM1460 1614l-164 -191h-563l-170 191h369l80 -70l63 70h385z" glyph-name="Ncaron" horiz-adv-x="2025" unicode="Ň"/><glyph d="M1772 0h-664v563q0 84 -37 121t-126 37t-130 -41t-41 -131v-549h-663v1151h663v-174q84 113 195.5 158t300.5 45q256 0 379 -115t123 -350v-715zM1532 1491l-211 -223h-743l-228 223h455l139 -119l127 119h461z" glyph-name="ncaron" horiz-adv-x="1882" unicode="ň"/><glyph d="M1042 1405q458 0 691 -179t233 -552q0 -176 -61.5 -318.5t-171.5 -222.5q-240 -172 -710 -172t-710 172q-233 170 -233 559t260 555q244 158 702 158zM1022 942q-115 0 -174.5 -67.5t-59.5 -196.5q0 -322 235 -322t234 320q1 266 -235 266zM1454 1425h-862v207h862v-207z " glyph-name="Omacron" horiz-adv-x="2043" unicode="Ō"/><glyph d="M896 1190q232 0 362.5 -28.5t232.5 -102.5q213 -151 213 -473t-196 -474t-625 -151q-428 0 -622.5 150.5t-194.5 490.5q0 303 190 440q106 78 257 113t383 35zM891 799q-211 0 -211 -213q0 -258 211 -258t211 254q0 113 -51 165t-160 52zM1286 1268h-805v207h805v-207z " glyph-name="omacron" horiz-adv-x="1769" unicode="ō"/><glyph d="M1042 1405q458 0 691 -179t233 -552q0 -176 -61.5 -318.5t-171.5 -222.5q-240 -172 -710 -172t-710 172q-233 170 -233 559t260 555q244 158 702 158zM1022 942q-115 0 -174.5 -67.5t-59.5 -196.5q0 -322 235 -322t234 320q1 266 -235 266zM801 1425h-418l152 168h469z M1460 1425h-418l150 168h469z" glyph-name="Ohungarumlaut" horiz-adv-x="2043" unicode="Ő"/><glyph d="M896 1190q232 0 362.5 -28.5t232.5 -102.5q213 -151 213 -473t-196 -474t-625 -151q-428 0 -622.5 150.5t-194.5 490.5q0 303 190 440q106 78 257 113t383 35zM891 799q-211 0 -211 -213q0 -258 211 -258t211 254q0 113 -51 165t-160 52zM313 1268l144 239h491l-268 -239 h-367zM930 1268l143 239h492l-271 -239h-364z" glyph-name="ohungarumlaut" horiz-adv-x="1769" unicode="ő"/><glyph d="M3017 0h-1489v160q-117 -106 -238 -147.5t-315 -41.5q-414 0 -635 160q-123 90 -191.5 236.5t-68.5 322.5t66.5 322.5t185.5 228.5q219 154 618 154q279 0 441 -78q78 -37 137 -115v164h1489v-438h-865v-127h865v-328h-865v-115h865v-358zM1022 942q-115 0 -174.5 -67.5 t-59.5 -196.5q0 -322 233.5 -322t233.5 318q0 268 -233 268z" glyph-name="OE" horiz-adv-x="3084" unicode="Œ"/><glyph d="M1925 -41q-180 0 -274.5 26.5t-235.5 114.5q-152 -90 -245 -114.5t-287 -24.5q-426 0 -621.5 151.5t-195.5 471.5t188 458q109 78 259.5 113t367.5 35t330.5 -27.5t211.5 -101.5q53 35 95 55q158 74 469 74q385 0 532 -162q61 -63 97 -192t36 -281q0 -12 -4 -106h-907 q0 -90 52.5 -124t186.5 -34t324 26.5t344 67.5l-139 -315q-270 -111 -584 -111zM891 799q-211 0 -211 -215q0 -258 211 -258t211 256q0 113 -51 165t-160 52zM1934 903q-108 0 -159 -45t-65 -145h410q-2 76 -29 114q-49 76 -157 76z" glyph-name="oe" horiz-adv-x="2717" unicode="œ"/><glyph d="M836 0h-703v1366h1317q233 0 346 -90q70 -53 109 -134t39 -173q0 -186 -150 -303q-104 -80 -278 -99l471 -567h-816l-335 432v-432zM836 719h215q90 0 133 24q63 39 63 119t-35.5 109.5t-119.5 29.5h-256v-282zM1184 1425h-539l150 168h591z" glyph-name="Racute" horiz-adv-x="2031" unicode="Ŕ"/><glyph d="M774 0h-663v1151h618v-293q45 201 152 275q70 49 227 49q59 0 141 -11v-641q-172 2 -237.5 -4t-127.5 -32t-86 -69.5t-24 -135.5v-289zM270 1268l144 239h710l-307 -239h-547z" glyph-name="racute" horiz-adv-x="1286" unicode="ŕ"/><glyph d="M836 0h-703v1366h1317q233 0 346 -90q70 -53 109 -134t39 -173q0 -186 -150 -303q-104 -80 -278 -99l471 -567h-816l-335 432v-432zM836 719h215q90 0 133 24q63 39 63 119t-35.5 109.5t-119.5 29.5h-256v-282zM1348 -82l-197 -225h-477l84 225h590z" glyph-name="Rcommaaccent" horiz-adv-x="2031" unicode="Ŗ"/><glyph d="M774 0h-663v1151h618v-293q45 201 152 275q70 49 227 49q59 0 141 -11v-641q-172 2 -237.5 -4t-127.5 -32t-86 -69.5t-24 -135.5v-289zM748 -82l-199 -225h-420l84 225h535z" glyph-name="rcommaaccent" horiz-adv-x="1286" unicode="ŗ"/><glyph d="M836 0h-703v1366h1317q233 0 346 -90q70 -53 109 -134t39 -173q0 -186 -150 -303q-104 -80 -278 -99l471 -567h-816l-335 432v-432zM836 719h215q90 0 133 24q63 39 63 119t-35.5 109.5t-119.5 29.5h-256v-282zM1464 1614l-164 -191h-565l-168 191h369l80 -70l63 70h385z " glyph-name="Rcaron" horiz-adv-x="2031" unicode="Ř"/><glyph d="M774 0h-663v1151h618v-293q45 201 152 275q70 49 227 49q59 0 141 -11v-641q-172 2 -237.5 -4t-127.5 -32t-86 -69.5t-24 -135.5v-289zM1233 1491l-209 -223h-745l-226 223h455l137 -119l129 119h459z" glyph-name="rcaron" horiz-adv-x="1286" unicode="ř"/><glyph d="M784 911q0 -57 76 -57h246q209 0 352 -51q96 -37 155.5 -130t59.5 -208t-55.5 -213t-159.5 -164t-237.5 -91.5t-368.5 -25.5q-375 0 -758 70v375q428 -66 764 -66q94 0 94 62q0 27 -20.5 37t-75.5 10h-115q-98 0 -258 16q-426 47 -426 418q0 240 162 360q190 141 680 142 q375 0 721 -68v-401q-303 47 -551 47h-154q-131 0 -131 -62zM1036 1425h-538l149 168h592z" glyph-name="Sacute" horiz-adv-x="1736" unicode="Ś"/><glyph d="M982 815q-208 0 -252 -9t-44 -36t29 -33q23 -6 110 -6h117q248 -4 295 -14q113 -20 172 -101.5t59 -209.5t-54 -222t-148 -137q-170 -76 -529 -76q-256 0 -618 41l-27 338q324 -39 526 -39t222 8q20 6 20 35q0 37 -57 37l-127 -2q-340 0 -457 64q-176 92 -176 323 t182 330q135 74 527 74t663 -27v-365q-225 27 -433 27zM412 1268l143 239h711l-310 -239h-544z" glyph-name="sacute" horiz-adv-x="1511" unicode="ś"/><glyph d="M784 911q0 -57 76 -57h246q209 0 352 -51q96 -37 155.5 -130t59.5 -208t-55.5 -213t-159.5 -164t-237.5 -91.5t-368.5 -25.5q-375 0 -758 70v375q428 -66 764 -66q94 0 94 62q0 27 -20.5 37t-75.5 10h-115q-98 0 -258 16q-426 47 -426 418q0 240 162 360q190 141 680 142 q375 0 721 -68v-401q-303 47 -551 47h-154q-131 0 -131 -62zM1343 1423h-385l-63 70l-80 -70h-369l170 191h564z" glyph-name="Scircumflex" horiz-adv-x="1736" unicode="Ŝ"/><glyph d="M982 815q-208 0 -252 -9t-44 -36t29 -33q23 -6 110 -6h117q248 -4 295 -14q113 -20 172 -101.5t59 -209.5t-54 -222t-148 -137q-170 -76 -529 -76q-256 0 -618 41l-27 338q324 -39 526 -39t222 8q20 6 20 35q0 37 -57 37l-127 -2q-340 0 -457 64q-176 92 -176 323 t182 330q135 74 527 74t663 -27v-365q-225 27 -433 27zM1346 1268h-459l-129 118l-137 -118h-455l227 223h744z" glyph-name="scircumflex" horiz-adv-x="1511" unicode="ŝ"/><glyph d="M784 911q0 -57 76 -57h246q209 0 352 -51q96 -37 155.5 -130t59.5 -210q0 -156 -99 -274.5t-274 -172.5q-67 -20 -180 -32l-186 -256h-543l195 252q-219 12 -492 61v375q422 -68 764 -68q94 0 94 62q0 29 -20.5 39t-75.5 10h-115q-98 0 -258 16q-426 47 -426 418 q0 240 162 360q190 141 680 142q375 0 721 -68v-401q-303 47 -551 47h-154q-131 0 -131 -62z" glyph-name="Scedilla" horiz-adv-x="1736" unicode="Ş"/><glyph d="M618 311q202 0 222 8q20 6 20 35q0 37 -57 37l-127 -2q-340 0 -457 64q-176 92 -176 323t182 330q135 74 527 74t663 -27v-365q-223 27 -432 27t-253 -9t-44 -36t29 -33q23 -6 110 -6h117q248 -4 295 -14q113 -20 172 -101t59 -215q0 -195 -118 -298t-394 -123l-196 -252 h-428l200 249q-231 14 -413 35l-27 338q324 -39 526 -39z" glyph-name="scedilla" horiz-adv-x="1511" unicode="ş"/><glyph d="M784 911q0 -57 76 -57h246q209 0 352 -51q96 -37 155.5 -130t59.5 -208t-55.5 -213t-159.5 -164t-237.5 -91.5t-368.5 -25.5q-375 0 -758 70v375q428 -66 764 -66q94 0 94 62q0 27 -20.5 37t-75.5 10h-115q-98 0 -258 16q-426 47 -426 418q0 240 162 360q190 141 680 142 q375 0 721 -68v-401q-303 47 -551 47h-154q-131 0 -131 -62zM1317 1614l-164 -191h-565l-168 191h368l80 -70l64 70h385z" glyph-name="Scaron" horiz-adv-x="1736" unicode="Š"/><glyph d="M982 815q-208 0 -252 -9t-44 -36t29 -33q23 -6 110 -6h117q248 -4 295 -14q113 -20 172 -101.5t59 -209.5t-54 -222t-148 -137q-170 -76 -529 -76q-256 0 -618 41l-27 338q324 -39 526 -39t222 8q20 6 20 35q0 37 -57 37l-127 -2q-340 0 -457 64q-176 92 -176 323 t182 330q135 74 527 74t663 -27v-365q-225 27 -433 27zM1346 1491l-209 -223h-744l-227 223h455l137 -119l129 119h459z" glyph-name="scaron" horiz-adv-x="1511" unicode="š"/><glyph d="M1098 0h-703v823h-409v543h1523v-543h-411v-823zM1079 -82l-196 -225h-477l83 225h590z" glyph-name="Tcommaaccent" horiz-adv-x="1495" unicode="Ţ"/><glyph d="M199 279v411h-199v234l496 442h364v-215h457v-461h-457v-237q0 -80 33 -100.5t141 -20.5t203 12l-84 -321q-244 -51 -500 -51t-355 70.5t-99 236.5zM958 -82l-196 -225h-422l84 225h534z" glyph-name="tcommaaccent" horiz-adv-x="1363" unicode="ţ"/><glyph d="M1098 0h-703v823h-409v543h1523v-543h-411v-823zM1196 1614l-164 -191h-565l-168 191h369l80 -70l63 70h385z" glyph-name="Tcaron" horiz-adv-x="1495" unicode="Ť"/><glyph d="M199 279v411h-199v234l496 442h364v-215h457v-461h-457v-237q0 -80 33 -100.5t141 -20.5t203 12l-84 -321q-244 -51 -500 -51t-355 70.5t-99 236.5zM1407 1628l-170 -371h-299l70 371h399z" glyph-name="tcaron" horiz-adv-x="1363" unicode="ť"/><glyph d="M1710 1151v-698q0 -244 -160 -353q-197 -129 -640 -129t-640 129q-160 109 -159 353v698h663v-659q0 -98 30 -135.5t107.5 -37.5t106.5 37t29 136v659h663zM1069 1227q-57 0 -178 33q-121 32 -166 32t-68 -45h-213q18 94 62 150q86 109 213 108q61 0 189 -34t165 -33 q62 0 80 51h223q-35 -123 -115.5 -192.5t-191.5 -69.5z" glyph-name="utilde" horiz-adv-x="1820" unicode="ũ"/><glyph d="M127 1366h702v-840q0 -90 21 -118q33 -48 120 -48t120 48q20 29 20 118v840h702v-825q0 -174 -72.5 -372t-778.5 -198t-770 205t-64 383v807zM1401 1425h-864v207h864v-207z" glyph-name="Umacron" horiz-adv-x="1939" unicode="Ū"/><glyph d="M1710 1151v-698q0 -244 -160 -353q-197 -129 -640 -129t-640 129q-160 109 -159 353v698h663v-659q0 -98 30 -135.5t107.5 -37.5t106.5 37t29 136v659h663zM1313 1268h-805v207h805v-207z" glyph-name="umacron" horiz-adv-x="1820" unicode="ū"/><glyph d="M1710 1151v-698q0 -244 -160 -353q-197 -129 -640 -129t-640 129q-160 109 -159 353v698h663v-659q0 -98 30 -135.5t107.5 -37.5t106.5 37t29 136v659h663zM909.5 1450q137.5 0 203 24.5t89.5 86.5h203q-6 -115 -84 -191q-127 -121 -413 -121t-408 121q-78 72 -86 191 h204q25 -61 89.5 -86t202 -25z" glyph-name="ubreve" horiz-adv-x="1820" unicode="ŭ"/><glyph d="M127 1366h702v-840q0 -90 21 -118q33 -48 120 -48t120 48q20 29 20 118v840h702v-825q0 -174 -72.5 -372t-778.5 -198t-770 205t-64 383v807zM972 1845q200 0 290 -50t90 -160t-93 -163t-291 -53t-289 52.5t-91 164.5t92 160.5t292 48.5zM973 1710q-88 0 -88 -74 q0 -90 88 -90t88 90q0 74 -88 74z" glyph-name="Uring" horiz-adv-x="1939" unicode="Ů"/><glyph d="M1710 1151v-698q0 -244 -160 -353q-197 -129 -640 -129t-640 129q-160 109 -159 353v698h663v-659q0 -98 30 -135.5t107.5 -37.5t106.5 37t29 136v659h663zM914 1671q200 0 289 -50t89 -160t-91 -163t-291 -53t-291 52.5t-91 164.5t93 160.5t293 48.5zM913 1536 q-88 0 -88 -74q0 -90 88 -90t88 90q0 74 -88 74z" glyph-name="uring" horiz-adv-x="1820" unicode="ů"/><glyph d="M127 1366h702v-840q0 -90 21 -118q33 -48 120 -48t120 48q20 29 20 118v840h702v-825q0 -174 -72.5 -372t-778.5 -198t-770 205t-64 383v807zM748 1425h-418l149 168h471zM1407 1425h-418l150 168h469z" glyph-name="Uhungarumlaut" horiz-adv-x="1939" unicode="Ű"/><glyph d="M1710 1151v-698q0 -244 -160 -353q-197 -129 -640 -129t-640 129q-160 109 -159 353v698h663v-659q0 -98 30 -135.5t107.5 -37.5t106.5 37t29 136v659h663zM340 1268l143 239h492l-270 -239h-365zM954 1268l144 239h491l-268 -239h-367z" glyph-name="uhungarumlaut" horiz-adv-x="1820" unicode="ű"/><glyph d="M127 1366h702v-840q0 -90 21 -118q33 -48 120 -48t120 48q20 29 20 118v840h702v-825q0 -174 -46.5 -300.5t-284.5 -203.5q-55 -18 -91 -65.5t-36 -104.5q0 -88 104 -88q12 0 53 6v-180q-55 -8 -110 -8q-119 0 -186.5 50t-67.5 144t82 193q-143 -12 -264 -13 q-518 0 -709 172q-76 68 -102.5 153t-26.5 263v807z" glyph-name="Uogonek" horiz-adv-x="1939" unicode="Ų"/><glyph d="M111 1151h663v-659q0 -98 30 -135.5t107.5 -37.5t106.5 37t29 136v659h663v-698q0 -174 -83 -278.5t-259 -154.5q-115 -33 -115 -145q0 -90 105 -90q14 0 53 6v-178q-51 -10 -111 -10q-119 0 -186 50t-67 137t71 190q-104 -8 -215 -9q-440 0 -633 129q-160 109 -159 353 v698z" glyph-name="uogonek" horiz-adv-x="1820" unicode="ų"/><glyph d="M2062 0h-686l-172 623l-174 -623h-670l-383 1366h707l141 -676l164 676h463l152 -653l145 653h692zM1659 1423h-385l-66 70l-78 -70h-370l170 191h565z" glyph-name="Wcircumflex" horiz-adv-x="2418" unicode="Ŵ"/><glyph d="M1276 0h-701v393l-598 973h785l182 -414l164 414h758l-590 -973v-393zM1372 1423h-387l-63 70l-80 -70h-369l170 191h565z" glyph-name="Ycircumflex" horiz-adv-x="1843" unicode="Ŷ"/><glyph d="M741 -272h-612v362h424l-555 1061h690l223 -569l187 569h690l-428 -913q-129 -279 -256 -400q-68 -63 -144.5 -86.5t-218.5 -23.5zM1481 1268h-459l-129 118l-137 -118h-455l225 223h746z" glyph-name="ycircumflex" horiz-adv-x="1781" unicode="ŷ"/><glyph d="M1276 0h-701v393l-598 973h785l182 -414l164 414h758l-590 -973v-393zM473 1425v201h356v-201h-356zM1016 1425v201h356v-201h-356z" glyph-name="Ydieresis" horiz-adv-x="1843" unicode="Ÿ"/><glyph d="M1581 0h-1526v305l623 582h-623v479h1526v-408l-586 -512h586v-446zM1024 1425h-539l150 168h592z" glyph-name="Zacute" horiz-adv-x="1632" unicode="Ź"/><glyph d="M1427 0h-1366v268l549 418h-530v465h1329v-360l-483 -394h501v-397zM399 1268l142 239h710l-307 -239h-545z" glyph-name="zacute" horiz-adv-x="1486" unicode="ź"/><glyph d="M1581 0h-1526v305l623 582h-623v479h1526v-408l-586 -512h586v-446zM637 1425v201h356v-201h-356z" glyph-name="Zdotaccent" horiz-adv-x="1632" unicode="Ż"/><glyph d="M1427 0h-1366v268l549 418h-530v465h1329v-360l-483 -394h501v-397zM573 1272v211h342v-211h-342z" glyph-name="zdotaccent" horiz-adv-x="1486" unicode="ż"/><glyph d="M1581 0h-1526v305l623 582h-623v479h1526v-408l-586 -512h586v-446zM1264 1614l-164 -191h-565l-168 191h368l80 -70l64 70h385z" glyph-name="Zcaron" horiz-adv-x="1632" unicode="Ž"/><glyph d="M1427 0h-1366v268l549 418h-530v465h1329v-360l-483 -394h501v-397zM1333 1491l-211 -223h-743l-225 223h454l137 -119l129 119h459z" glyph-name="zcaron" horiz-adv-x="1486" unicode="ž"/><glyph d="M206 -317q-128 0 -192 4l47 284h35q66 0 90.5 7.5t33.5 25.5t34 154l84 473h-172l41 248h176l39 223q20 109 48 172t82 113t132 73t192 23t201 -4l-49 -289q-48 2 -86 2t-61 -18t-28 -56t-9 -53l-31 -186h170l-41 -248h-178l-100 -565q-32 -186 -96 -260t-149 -98.5 t-213 -24.5z" glyph-name="florin" horiz-adv-x="1089" unicode="ƒ"/><glyph d="M1962 0h-707l-49 176h-456l-50 -176h-716l436 1366h1112zM1124 549l-141 432l-147 -432h288zM1419 1614l-164 -191h-565l-170 191h369l80 -70l63 70h387z" glyph-name="uni01CD" horiz-adv-x="1939" unicode="Ǎ"/><glyph d="M1757 0h-663v145q-94 -98 -198.5 -136t-275.5 -38t-360.5 81t-189.5 523q0 326 144 465q144 140 439 140t441 -191v162h663v-1151zM915.5 776q-90.5 0 -141.5 -57t-51 -164t51 -169t141.5 -62t141.5 62.5t51 167.5t-51 163.5t-141.5 58.5zM1503 1491l-209 -223h-745 l-225 223h454l137 -119l129 119h459z" glyph-name="uni01CE" horiz-adv-x="1826" unicode="ǎ"/><glyph d="M127 1366h702v-840q0 -90 21 -118q33 -48 120 -48t120 48q20 29 20 118v840h702v-825q0 -174 -72.5 -372t-778.5 -198t-770 205t-64 383v807zM1419 1614l-164 -191h-565l-170 191h369l80 -70l63 70h387z" glyph-name="uni01D3" horiz-adv-x="1939" unicode="Ǔ"/><glyph d="M1710 1151v-698q0 -244 -160 -353q-197 -129 -640 -129t-640 129q-160 109 -159 353v698h663v-659q0 -98 30 -135.5t107.5 -37.5t106.5 37t29 136v659h663zM1501 1491l-211 -223h-743l-228 223h455l137 -119l129 119h461z" glyph-name="uni01D4" horiz-adv-x="1820" unicode="ǔ"/><glyph d="M1782 688v-616q-426 -100 -738 -101q-422 0 -673 142q-291 164 -291 575q0 362 252 541q233 166 647 166t780 -84v-475q-293 59 -543 59t-352 -72q-108 -70 -108 -208t83 -211.5t224 -73.5q23 0 84 4v354h635zM1434 1614l-164 -191h-563l-170 191h368l80 -70l64 70h385z " glyph-name="Gcaron" horiz-adv-x="1886" unicode="Ǧ"/><glyph d="M1765 1151v-936q0 -270 -186 -390t-797 -120q-274 0 -596 29l-36 313q252 -59 553 -59t374 100q25 33 25 102q-100 -57 -201.5 -80.5t-249.5 -23.5q-301 0 -432 117q-153 135 -153 429t155 431q135 117 426 117q176 0 280.5 -38t174.5 -126v135h663zM898 856 q-89 0 -140 -59t-51 -165t51 -168.5t141 -62.5t141.5 62.5t51.5 168.5t-52.5 165t-141.5 59zM1528 1491l-211 -223h-744l-225 223h455l137 -119l129 119h459z" glyph-name="gcaron" horiz-adv-x="1875" unicode="ǧ"/><glyph d="M1782 688v-616q-426 -100 -738 -101q-422 0 -673 142q-291 164 -291 575q0 362 252 541q233 166 647 166t780 -84v-475q-293 59 -543 59t-352 -72q-108 -70 -108 -208t83 -211.5t224 -73.5q23 0 84 4v354h635zM1112 1425h-539l152 168h590z" glyph-name="uni01F4" horiz-adv-x="1886" unicode="Ǵ"/><glyph d="M784 911q0 -57 76 -57h246q209 0 352 -51q96 -37 155.5 -130t59.5 -208t-55.5 -213t-159.5 -164t-237.5 -91.5t-368.5 -25.5q-375 0 -758 70v375q428 -66 764 -66q94 0 94 62q0 27 -20.5 37t-75.5 10h-115q-98 0 -258 16q-426 47 -426 418q0 240 162 360q190 141 680 142 q375 0 721 -68v-401q-303 47 -551 47h-154q-131 0 -131 -62zM1159 -82l-196 -225h-478l84 225h590z" glyph-name="Scommaaccent" horiz-adv-x="1736" unicode="Ș"/><glyph d="M982 815q-208 0 -252 -9t-44 -36t29 -33q23 -6 110 -6h117q248 -4 295 -14q113 -20 172 -101.5t59 -209.5t-54 -222t-148 -137q-170 -76 -529 -76q-256 0 -618 41l-27 338q324 -39 526 -39t222 8q20 6 20 35q0 37 -57 37l-127 -2q-340 0 -457 64q-176 92 -176 323 t182 330q135 74 527 74t663 -27v-365q-225 27 -433 27zM1020 -82l-197 -225h-422l84 225h535z" glyph-name="scommaaccent" horiz-adv-x="1511" unicode="ș"/><glyph d="M1098 0h-703v823h-409v543h1523v-543h-411v-823zM1079 -82l-196 -225h-477l83 225h590z" glyph-name="uni021A" horiz-adv-x="1495" unicode="Ț"/><glyph d="M199 279v411h-199v234l496 442h364v-215h457v-461h-457v-237q0 -80 33 -100.5t141 -20.5t203 12l-84 -321q-244 -51 -500 -51t-355 70.5t-99 236.5zM958 -82l-196 -225h-422l84 225h534z" glyph-name="uni021B" horiz-adv-x="1363" unicode="ț"/><glyph d="M715 1423l-252 -483h-346l162 483h436z" glyph-name="afii57929" horiz-adv-x="833" unicode="ʼ"/><glyph d="M1102 1268h-459l-129 118l-137 -118h-455l225 223h746z" glyph-name="circumflex" unicode="ˆ"/><glyph d="M1102 1491l-209 -223h-746l-225 223h455l137 -119l129 119h459z" glyph-name="caron" unicode="ˇ"/><glyph d="M915 1268h-804v207h804v-207z" glyph-name="uni02C9" unicode="ˉ"/><glyph d="M512 1450q137 0 202.5 24.5t88.5 86.5h205q-6 -115 -84 -191q-127 -121 -412 -121t-412 121q-78 76 -84 191h205q23 -61 88.5 -86t202.5 -25z" glyph-name="breve" unicode="˘"/><glyph d="M342 1272v211h342v-211h-342z" glyph-name="dotaccent" unicode="˙"/><glyph d="M514 1671q200 0 289.5 -50t89.5 -160t-91 -163t-291 -53t-291 52.5t-91 164.5t92.5 160.5t292.5 48.5zM514 1536q-88 0 -88 -74q0 -90 88 -90t88 90q0 74 -88 74z" glyph-name="ring" unicode="˚"/><glyph d="M856 -145q0 -76 105 -76q14 0 53 6v-180q-55 -8 -111 -8q-119 0 -186.5 50t-67.5 145t94 208h189q-47 -63 -61.5 -90t-14.5 -55z" glyph-name="ogonek" unicode="˛"/><glyph d="M670 1227q-56 0 -178 33q-122 32 -166 32t-68 -45h-213q18 94 61 150q86 109 216 108q63 0 189 -34t165 -33q60 0 80 51h221q-35 -123 -116 -192.5t-191 -69.5z" glyph-name="tilde" unicode="˜"/><glyph d="M-59 1268l143 239h491l-268 -239h-366zM557 1268l141 239h494l-270 -239h-365z" glyph-name="hungarumlaut" unicode="˝"/><glyph d="M362 772q137 0 203 -44t66 -137t-71 -143.5t-198 -50.5t-196.5 51.5t-69.5 141.5q0 182 266 182z" glyph-name="anoteleia" horiz-adv-x="727" unicode="·"/><glyph d="M2062 0h-686l-172 623l-174 -623h-670l-383 1366h707l141 -676l164 676h463l152 -653l145 653h692zM760 1425v201h356v-201h-356zM1303 1425v201h356v-201h-356z" glyph-name="Wdieresis" horiz-adv-x="2418" unicode="Ẅ"/><glyph glyph-name="uni2007" horiz-adv-x="1693" unicode=" "/><glyph d="M696 395h-696v383h696v-383z" glyph-name="uni2011" horiz-adv-x="696" unicode="‑"/><glyph d="M1587 395h-1476v383h1476v-383z" glyph-name="figuredash" horiz-adv-x="1697" unicode="‒"/><glyph d="M1587 395h-1476v383h1476v-383z" glyph-name="endash" horiz-adv-x="1697" unicode="–"/><glyph d="M1663 760v-350h-1663v350h1663z" glyph-name="emdash" horiz-adv-x="1662" unicode="—"/><glyph d="M1663 760v-350h-1663v350h1663z" glyph-name="afii00208" horiz-adv-x="1662" unicode="―"/><glyph d="M117 940l252 483h346l-162 -483h-436z" glyph-name="quoteleft" horiz-adv-x="833" unicode="‘"/><glyph d="M715 1423l-252 -483h-346l162 483h436z" glyph-name="quoteright" horiz-adv-x="833" unicode="’"/><glyph d="M715 328l-252 -484h-346l162 484h436z" glyph-name="quotesinglbase" horiz-adv-x="833" unicode="‚"/><glyph d="M117 940l252 483h346l-162 -483h-436zM688 940l254 483h344l-160 -483h-438z" glyph-name="quotedblleft" horiz-adv-x="1404" unicode="“"/><glyph d="M1286 1423l-252 -483h-346l162 483h436zM715 1423l-252 -483h-346l162 483h436z" glyph-name="quotedblright" horiz-adv-x="1404" unicode="”"/><glyph d="M1286 328l-252 -484h-346l162 484h436zM715 328l-252 -484h-346l162 484h436z" glyph-name="quotedblbase" horiz-adv-x="1404" unicode="„"/><glyph d="M1231 1022v-352h-334v-987h-401v987h-330v352h330v344h401v-344h334z" glyph-name="dagger" horiz-adv-x="1396" unicode="†"/><glyph d="M1231 1030v-340h-334v-330h334v-337h-334v-340h-399v340h-332v337h332v330h-332v340h332v336h399v-336h334z" glyph-name="daggerdbl" horiz-adv-x="1396" unicode="‡"/><glyph d="M686 977q117 0 200 -84t83 -201t-83 -199.5t-200 -82.5t-201 82.5t-84 200.5t84 201t201 83z" glyph-name="bullet" horiz-adv-x="1366" unicode="•"/><glyph d="M362 354q137 0 203 -44t66 -136t-71 -142t-198 -50t-196.5 51t-69.5 141q0 180 266 180zM1090 354q137 0 202.5 -44t65.5 -136t-70 -142t-198 -50t-197.5 51t-69.5 141q1 180 267 180zM1817 354q137 0 202.5 -44t65.5 -136t-70.5 -142t-197.5 -50t-197 51t-70 141 q1 180 267 180z" glyph-name="ellipsis" horiz-adv-x="2181" unicode="…"/><glyph d="M424 1386q145 0 236.5 -101t91.5 -262t-92.5 -260t-240 -99t-240.5 102t-93 261t96.5 259t241.5 100zM421 1210q-101 0 -101 -186t100 -186q102 0 102 186t-101 186zM1317 1366l-549 -1362h-201l549 1362h201zM1471 707q145 0 236 -101.5t91 -262.5t-92 -260t-239.5 -99 t-240.5 102t-93 261t96.5 259.5t241.5 100.5zM1467 530q-101 0 -101 -186t100 -186q53 0 78 45t25 145q-1 182 -102 182zM2271 707q145 0 236.5 -101.5t91.5 -262.5t-92 -260t-239.5 -99t-241 102t-93.5 261t96.5 259.5t241.5 100.5zM2268 530q-101 0 -101 -186t101 -186 t101 186t-101 186z" glyph-name="perthousand" horiz-adv-x="2684" unicode="‰"/><glyph d="M387 84l-319 242v368l319 242v-313l-147 -109l147 -111v-319z" glyph-name="guilsinglleft" horiz-adv-x="466" unicode="‹"/><glyph d="M80 938l321 -244v-372l-321 -240v307l149 117l-149 112v320z" glyph-name="guilsinglright" horiz-adv-x="468" unicode="›"/><glyph d="M0 1710h1024v-254h-1024v254z" glyph-name="uni203E" unicode="‾"/><glyph d="M498 1366l-551 -1366h-201l549 1366h203z" glyph-name="fraction" horiz-adv-x="241" unicode="⁄"/><glyph d="M628 1389q214 1 349 -99t135 -334q0 -111 -38 -202.5t-105 -143.5q-113 -86 -353 -86t-350 94q-135 113 -135 345q0 113 42 205t114 139q127 82 341 82zM744 938q0 145 -122 145t-122 -145t122 -145t122 145z" glyph-name="uni2070" horiz-adv-x="1241" unicode="⁰"/><glyph d="M1032 547h-428v112h-473v334l332 373h569v-463h117v-244h-117v-112zM616 885v223l-182 -223h182z" glyph-name="uni2074" horiz-adv-x="1277" unicode="⁴"/><glyph d="M1022 861.5q0 -187.5 -124 -259.5t-358 -72t-409 48v192q158 -25 251 -25t130 13.5t37 46.5q0 68 -189 67q-115 0 -229 -14v508h848v-264h-500v-58q51 4 119 5q424 0 424 -187.5z" glyph-name="uni2075" horiz-adv-x="1153" unicode="⁵"/><glyph d="M739 1071q178 0 263 -59.5t85 -184.5q0 -188 -157 -258q-100 -41 -309 -41q-283 0 -386 88t-103 321t117.5 339t389.5 106q211 1 412 -34v-248q-161 28 -283 28t-162.5 -16t-46.5 -61q96 20 180 20zM543 809q0 -47 8 -61q20 -41 76 -41q86 0 86 106q0 82 -84 82 q-43 0 -86 -16v-70z" glyph-name="uni2076" horiz-adv-x="1216" unicode="⁶"/><glyph d="M131 1036v330h866v-283l-397 -536h-401l293 489h-361z" glyph-name="uni2077" horiz-adv-x="1126" unicode="⁷"/><glyph d="M137 1145q-1 237 485 237t486 -226q0 -110 -70 -165q-37 -27 -120 -43q37 4 52 2t79.5 -45.5t64.5 -140.5q0 -127 -112 -181t-380 -54.5t-380 55.5q-51 25 -81 73.5t-30 112.5t44 115t120 69q-158 37 -158 191zM731 1079q0 80 -104 80t-104.5 -80t104 -80t104.5 80z M727 799q0 78 -100 78t-101 -76q0 -80 100.5 -80t100.5 78z" glyph-name="uni2078" horiz-adv-x="1245" unicode="⁸"/><glyph d="M476 745q120 0 153 16.5t33 55.5q-72 -16 -185 -16q-186 0 -267 63.5t-81 217.5t110.5 227t354.5 73t348 -79q129 -103 129 -327t-113 -336t-393 -112q-186 0 -366 35l-27 219q184 -37 304 -37zM674 1057q0 55 -19.5 77.5t-66.5 22.5q-90 0 -90 -85t92 -85q27 0 84 4v66z " glyph-name="uni2079" horiz-adv-x="1202" unicode="⁹"/><glyph d="M628 842q214 0 349 -99t135 -335t-143 -345q-113 -86 -353 -86t-350 95q-135 113 -135 344q0 113 42 205t114 139q127 82 341 82zM744 391.5q0 145.5 -122 145.5q-122 1 -122 -145t122 -146t122 145.5z" glyph-name="uni2080" horiz-adv-x="1241" unicode="₀"/><glyph d="M739 0h-434v434l-174 -55v295l201 145h407v-819z" glyph-name="uni2081" horiz-adv-x="868" unicode="₁"/><glyph d="M131 479q0 357 473 357q224 0 326 -79t102 -204q0 -147 -162 -225q-49 -25 -194 -76h358v-252h-882v231q358 116 414.5 174t56.5 87q0 66 -74 65q-53 0 -75.5 -34t-22.5 -109h-318q-2 25 -2 65z" glyph-name="uni2082" horiz-adv-x="1165" unicode="₂"/><glyph d="M406 209q146 1 145 65q0 64 -176 64q-76 0 -164 -8v67l250 158h-318v264h858v-205l-258 -159q12 2 29 2q127 0 193.5 -51.5t66.5 -145.5q0 -133 -119 -204.5t-335 -71.5t-435 53l-14 209q131 -37 277 -37z" glyph-name="uni2083" horiz-adv-x="1163" unicode="₃"/><glyph d="M1032 0h-428v115h-473v334l332 370h569v-461h117v-243h-117v-115zM616 340v221l-182 -221h182z" glyph-name="uni2084" horiz-adv-x="1277" unicode="₄"/><glyph d="M598 502q424 0 424 -187.5t-124 -259t-358 -71.5t-409 47v192q288 -42 353 -19t65 56q0 66 -189 66q-115 0 -229 -15v508h848v-264h-500v-57q51 4 119 4z" glyph-name="uni2085" horiz-adv-x="1153" unicode="₅"/><glyph d="M768 582q-122 0 -162.5 -16.5t-46.5 -61.5q96 20 180 20q178 0 263 -59t85 -184q0 -189 -170 -261q-87 -36 -296 -36q-283 0 -386 88t-103 320t117.5 338t389.5 106q211 0 412 -35v-246q-161 27 -283 27zM543 262q0 -45 8 -61q20 -39 76 -39q86 0 86 106q0 80 -84 80 q-43 0 -86 -16v-70z" glyph-name="uni2086" horiz-adv-x="1216" unicode="₆"/><glyph d="M131 489v330h866v-282l-397 -537h-401l293 489h-361z" glyph-name="uni2087" horiz-adv-x="1126" unicode="₇"/><glyph d="M137 598q0 238 485.5 238t485.5 -238q0 -102 -70 -152q-37 -29 -120 -45q29 5 48 5t83.5 -44t64.5 -143q0 -127 -112 -181t-380 -54t-380 55q-51 25 -81 73t-30 112t44 115t120 69q-158 37 -158 190zM731 532.5q0 79.5 -104 79.5t-104.5 -79.5t104 -79.5t104.5 79.5z M626.5 176q100.5 0 100.5 77t-100 77t-101 -76q0 -78 100.5 -78z" glyph-name="uni2088" horiz-adv-x="1245" unicode="₈"/><glyph d="M476 201q120 0 153 16t33 55q-72 -16 -185 -16q-186 0 -267 63t-81 217t110.5 227t356.5 73t346 -80q129 -102 129 -326t-113 -335q-113 -112 -393 -111q-180 -1 -366 32l-27 222q184 -37 304 -37zM674 512q0 55 -19.5 77.5t-66.5 22.5q-90 0 -90 -86t92 -86q23 0 84 4 v68z" glyph-name="uni2089" horiz-adv-x="1202" unicode="₉"/><glyph d="M1423 354h-614v-354h-676v1366h1380v-459h-704v-137h614v-416zM1939 0h-426v770h400v-121q39 84 83 111.5t112 27.5t126 -8v-391h-32l-62 2q-135 0 -178 -49q-23 -25 -23 -88v-254z" glyph-name="franc" horiz-adv-x="2269" unicode="₣"/><glyph d="M809 0h-676v1366h1120q240 0 371 -125t131 -352q0 -291 -207 -447q-180 -131 -538 -131h-201v-311zM809 686h92q195 0 195 154q0 63 -38 98t-108 35h-141v-287zM1847 172v236h-110v147l282 264h213v-127h254v-284h-254v-134q0 -43 16 -53t82 -10t115 8l-51 -205 q-138 -30 -284 -30t-204.5 44t-58.5 144zM3092 485q-116 0 -139.5 -4t-23.5 -21t20 -20h139q117 -4 149 -9t58 -25q70 -51 70 -164q0 -74 -32 -130.5t-87 -82.5q-92 -45 -272 -45t-377 24l-17 213q204 -27 302 -27t113.5 5.5t15.5 20.5q-1 16 -21 16t-31 -3h-32 q-201 0 -271 37q-102 57 -102 196.5t106 199.5q78 44 293 44t381 -18v-227q-126 20 -242 20z" glyph-name="peseta" horiz-adv-x="3399" unicode="₧"/><glyph d="M1434 436q209 0 448 56v-474q-305 -47 -594 -47q-430 0 -622 86q-311 141 -375 498h-225l69 166h144q12 250 147 418q207 256 741 256q315 0 740 -64v-534q-305 53 -527 53q-301 0 -350 -129h510l-72 -166h-440q29 -63 113 -91t293 -28z" glyph-name="Euro" horiz-adv-x="1976" unicode="€"/><glyph d="M1276 547h-457l-31 102h-270l-29 -102h-462l274 819h703zM733 883l-76 223l-79 -223h155zM1855 1366l-550 -1366h-201l549 1366h202zM2154 219q49 0 50 29q0 14 -10.5 18t-43.5 4h-69q-207 0 -293 41q-139 61 -139 220t127.5 232t377.5 73t480 -41v-250q-193 29 -350 28 h-97q-72 0 -71 -28q0 -27 38 -27h152q136 0 210 -26t112 -83t38 -128q0 -145 -135 -226q-70 -41 -152.5 -56t-264.5 -15t-443 41v235q264 -41 483 -41z" glyph-name="uni2101" horiz-adv-x="2717" unicode="℁"/><glyph d="M545 870q137 0 202.5 -44t65.5 -137t-70.5 -143t-197.5 -50t-196.5 51t-69.5 141q0 182 266 182z" glyph-name="afii61248" horiz-adv-x="1091" unicode="℅"/><glyph d="M506 547h-428v704q84 -12 214 -12t214 12v-704zM506 1380v-75q0 -25 -12.5 -33t-47.5 -8h-294q-35 0 -47.5 8t-12.5 33v75q0 25 12.5 33t47.5 8h294q35 0 47.5 -8t12.5 -33z" glyph-name="uni2117" horiz-adv-x="583" unicode="℗"/><glyph d="M711 547h-453v485h-254v334h961v-334h-254v-485zM2443 547h-434v375l-135 -375h-248l-135 362v-362h-428v819h561l125 -373l127 373h567v-819z" glyph-name="trademark" horiz-adv-x="2537" unicode="™"/><glyph d="M55 0v367h203q-88 57 -127 112q-86 111 -86 285q0 268 184.5 452.5t452.5 184.5t452.5 -184.5t184.5 -452.5q0 -184 -94 -297q-39 -47 -119 -100h203v-367h-570v336q86 41 118 122t32 225q0 143 -29 209t-78 101t-100 35t-100.5 -35t-77.5 -101t-29 -208q0 -277 150 -348 v-336h-570z" glyph-name="uni2126" horiz-adv-x="1366" unicode="Ω"/><glyph d="M739 547h-434v434l-174 -55v295l201 145h407v-819zM1366 1366l-551 -1366h-201l549 1366h203zM1518 209q146 1 145 65q0 64 -176 64q-76 0 -164 -8v67l250 158h-318v264h859v-205l-259 -159q12 2 29 2q127 0 193.5 -51.5t66.5 -145.5q0 -133 -119 -204.5t-335 -71.5 t-435 53l-14 209q131 -37 277 -37z" glyph-name="onethird" horiz-adv-x="2273" unicode="⅓"/><glyph d="M1034 547h-882v231q358 116 414.5 174t56.5 86q0 63 -74 64q-53 0 -75.5 -33t-22.5 -108h-318q-2 25 -2 65q0 186 135 281q113 75 337 75q225 0 327 -78t102 -204q0 -147 -162 -226q-49 -25 -194 -75h358v-252zM1661 1366l-549 -1366h-201l549 1366h201zM1812 209 q146 1 146 65t-176 64q-76 0 -164 -8v67l250 158h-316v264h858v-205l-258 -159q12 2 27 2q127 0 194.5 -50.5t67.5 -146.5q0 -133 -119.5 -204.5t-339.5 -71.5t-430 53l-14 209q128 -37 274 -37z" glyph-name="twothirds" horiz-adv-x="2570" unicode="⅔"/><glyph d="M739 547h-434v434l-174 -55v295l201 145h407v-819zM1366 1366l-551 -1366h-201l549 1366h203zM1249 598q1 238 485 238t484 -228q0 -112 -70 -162q-37 -29 -120 -45q29 5 48 5t84.5 -43.5t65.5 -143.5q0 -127 -112 -181t-380 -54q-269 0 -380 55q-51 25 -82 73t-31 112 t45 115t121 69q-158 37 -158 190zM1841.5 532.5q-0.5 79.5 -103.5 79.5t-103.5 -79.5t103.5 -79.5t103.5 79.5zM1738 176q102 0 101 77q0 77 -101 77t-102 -76q0 -78 102 -78z" glyph-name="oneeighth" horiz-adv-x="2355" unicode="⅛"/><glyph d="M404 756q146 0 147 64q0 64 -176 65q-76 0 -164 -8v67l250 158h-318v264h858v-205l-258 -160q12 2 29 3q127 0 193.5 -51.5t66.5 -145.5q0 -133 -119 -205t-335 -72t-435 54l-14 209q129 -37 275 -37zM1659 1366l-551 -1366h-201l549 1366h203zM1542 598q0 238 484 238 t485 -228q0 -112 -70 -162q-37 -29 -121 -45q28 5 48 5t85.5 -43.5t65.5 -143.5q0 -127 -112 -181q-113 -54 -381 -54t-379 55q-51 25 -82 73t-31 112t44 115t122 69q-158 37 -158 190zM2134 532.5q0 79.5 -103 79.5t-104 -79.5t103 -79.5t104 79.5zM2030 176q102 0 102 77 t-101 77t-102 -76q-1 -78 101 -78z" glyph-name="threeeighths" horiz-adv-x="2650" unicode="⅜"/><glyph d="M1022 861.5q0 -187.5 -124 -259.5t-358 -72t-409 48v192q158 -25 251 -25t130 13.5t37 46.5q0 68 -189 67q-115 0 -229 -14v508h848v-264h-500v-58q51 4 119 5q424 0 424 -187.5zM1649 1366l-549 -1366h-201l549 1366h201zM1532 598q0 238 485.5 238t485.5 -238 q0 -102 -70 -152q-37 -29 -121 -45q28 5 48 5t84.5 -44t64.5 -143q0 -127 -112 -181t-380 -54t-381 55q-110 55 -110 185q0 64 44 115t120 69q-158 37 -158 190zM2021 612q-104 0 -104 -79.5t104.5 -79.5t104 79.5t-104.5 79.5zM2021 330q-100 0 -100 -77t100.5 -77 t100.5 78q-1 76 -101 76z" glyph-name="fiveeighths" horiz-adv-x="2639" unicode="⅝"/><glyph d="M131 1036v330h866v-283l-397 -536h-401l293 489h-361zM1624 1366l-551 -1366h-201l549 1366h203zM1507 598q1 238 485 238t484 -228q0 -112 -70 -162q-37 -29 -120 -45q29 5 48 5t85.5 -44.5t64.5 -142.5q0 -127 -112 -181t-380 -54q-269 0 -380 55q-51 25 -82 73 t-31 112t44 115t122 69q-158 37 -158 190zM2099.5 532.5q-0.5 79.5 -103.5 79.5t-103.5 -79.5t103.5 -79.5t103.5 79.5zM1996 176q102 0 101 77q0 77 -101 77t-102 -76q0 -78 102 -78z" glyph-name="seveneighths" horiz-adv-x="2613" unicode="⅞"/><glyph d="M1012 580q0 -285 -137.5 -440.5t-389.5 -155.5q-203 0 -329 120q-70 68 -109 167.5t-39 203.5q0 174 121 290t303 116q131 0 182 -37q-23 53 -56.5 76.5t-145.5 60.5t-336 45l47 324q416 -37 643 -220q246 -201 246 -550zM506 569q-51 0 -86 -36.5t-35 -88.5t36 -89.5 t86 -37.5t86 37t36 89t-36 89t-87 37z" glyph-name="partialdiff" unicode="∂"/><glyph d="M1130 717q0 -209 -147 -353.5t-360 -144.5q-94 0 -162 33l-129 -252l-99 51l125 250q-221 162 -221 414q0 209 145.5 353t354.5 144q80 0 166 -28l96 182l98 -51l-98 -180q231 -164 231 -418zM633 336q158 0 270.5 111.5t112.5 267.5q0 96 -44 182t-120 131l-338 -676 q66 -16 119 -16zM252 717q0 -184 158 -311l340 673q-57 16 -111 17q-160 0 -273.5 -112t-113.5 -267z" glyph-name="emptyset" horiz-adv-x="1265" unicode="∅"/><glyph d="M20 0l447 1366h440l451 -1366h-1338zM557 367h254l-121 555z" glyph-name="uni2206" horiz-adv-x="1378" unicode="∆"/><glyph d="M23 1536h1318v-338h-143v-1372h143v-338h-634v338h112v1372h-274v-1372h108v-338h-630v338h147v1372h-147v338z" glyph-name="product" horiz-adv-x="1366" unicode="∏"/><glyph d="M1317 1536v-571h-381l-47 182h-346l483 -610l-479 -660h360l27 199h401v-588h-1267v446l456 603l-456 548v451h1249z" glyph-name="summation" horiz-adv-x="1366" unicode="∑"/><glyph d="M31 838h1030v-312h-1030v312z" glyph-name="minus" horiz-adv-x="1091" unicode="−"/><glyph d="M1366 1694v-348h-299l-289 -1346h-504l-77 453h-197v348h434l31 -156q23 -109 22 -264v-39h25q-4 182 72 576l174 776h608z" glyph-name="radical" horiz-adv-x="1366" unicode="√"/><glyph d="M371 356q-147 0 -242.5 95.5t-95.5 243t94.5 242.5t224.5 95t223 -63l101 -86q92 86 158.5 117.5t156.5 31.5q150 0 245 -94t95 -243t-95 -244t-241 -95q-86 0 -150.5 32t-148.5 114l-6 8q-86 -84 -157.5 -119t-161.5 -35zM946 614q37 0 63.5 24t26.5 56.5t-26.5 56 t-63.5 23.5q-64 0 -123 -80q63 -80 123 -80zM418 774q-37 0 -63.5 -23.5t-26.5 -56t26.5 -56.5t63.5 -24q60 0 123 80q-63 80 -123 80z" glyph-name="infinity" horiz-adv-x="1366" unicode="∞"/><glyph d="M283 729q0 276 3 335.5t23 137.5q37 160 191 258q123 76 311 76q90 0 215 -20l-63 -402q-61 20 -99 21q-82 0 -112 -72q-10 -27 -11 -109v-647q0 -362 -12 -434q-35 -188 -186 -297q-123 -90 -332 -90q-78 0 -131 9t-82 13l63 402q63 -20 99 -20t68 19t43 49t12 257v514z " glyph-name="integral" unicode="∫"/><glyph d="M538 1249q60 0 102 -43t42 -101t-43 -101t-101 -43t-101.5 41.5t-43.5 101.5t42.5 102.5t102.5 42.5zM536 563q58 0 101 -42t43 -101.5t-42 -102.5t-101.5 -43t-102.5 42t-43 102t43.5 102.5t101.5 42.5z" glyph-name="uni2236" horiz-adv-x="1071" unicode="∶"/><glyph d="M344 1190q37 0 81 -12.5t210 -71.5q41 -12 59 -12q59 0 107 71l211 -149q-68 -170 -142 -248q-82 -82 -188 -82q-55 0 -191 50t-165 48q-54 1 -103 -71l-211 149q66 176 142.5 252t189.5 76zM342 655q39 0 77.5 -11t146.5 -47t128 -36q61 0 107 72l211 -150 q-70 -173 -147 -251t-183 -78q-49 0 -301 86q-35 10 -57 10q-52 0 -101 -70l-211 150q66 174 142.5 249.5t187.5 75.5z" glyph-name="approxequal" unicode="≈"/><glyph d="M1061 1077v-311h-289l-96 -166h385v-311h-563l-144 -248l-268 156l53 92h-108v311h286l99 166h-385v311h563l143 248l269 -154l-54 -94h109z" glyph-name="notequal" horiz-adv-x="1091" unicode="≠"/><glyph d="M954 1417v-418l-399 -81l397 -80l2 -416l-886 311v373zM954 371v-391h-886v391h886z" glyph-name="lessequal" unicode="≤"/><glyph d="M68 422l2 416l397 80l-399 81v418l886 -311v-373zM68 -20v391h886v-391h-886z" glyph-name="greaterequal" unicode="≥"/><glyph d="M362 772q137 0 203 -44t66 -137t-71 -143.5t-198 -50.5t-196.5 51.5t-69.5 141.5q0 182 266 182z" glyph-name="dotmath" horiz-adv-x="727" unicode="⋅"/><glyph d="M684 1419l530 -735l-530 -737l-532 737zM684 1237l-403 -553l403 -555l403 555z" glyph-name="lozenge" horiz-adv-x="1366" unicode="◊"/><glyph d="M33 53q68 0 86 51q6 20 6 123v944q129 -20 332 -20t329 20v-997q0 -152 -22.5 -228.5t-79.5 -127.5t-160.5 -70.5t-239.5 -19.5t-309 6v325q49 -6 58 -6z" glyph-name="uniF6BE" horiz-adv-x="888" unicode=""/><glyph d="M817 -82l-196 -225h-422l84 225h534z" glyph-name="uniF6C3" unicode=""/><glyph d="M721 1425h-539l150 168h590z" glyph-name="uniF6C9" unicode=""/><glyph d="M961 1614l-164 -191h-564l-170 191h369l80 -70l63 70h386z" glyph-name="uniF6CA" unicode=""/><glyph d="M61 1425v201h357v-201h-357zM604 1425v201h357v-201h-357z" glyph-name="uniF6CB" unicode=""/><glyph d="M303 1425l-203 168h590l150 -168h-537z" glyph-name="uniF6CE" unicode=""/><glyph d="M291 1425h-418l150 168h469zM950 1425h-418l150 168h469z" glyph-name="uniF6CF" unicode=""/><glyph d="M944 1425h-864v207h864v-207z" glyph-name="uniF6D0" unicode=""/><glyph d="M461 754l-170 -369h-215l78 369h307z" glyph-name="uniF6E2" horiz-adv-x="526" unicode=""/><glyph d="M70 655q0 115 173 115t173 -115q0 -57 -46 -88.5t-127 -31.5t-127 31.5t-46 88.5z" glyph-name="uniF6E8" horiz-adv-x="485" unicode=""/><glyph d="M133 0v1366h1192q326 0 500 -177t174 -462q0 -362 -270 -557q-231 -170 -574 -170h-1022zM942 410q330 0 330 266q0 219 -236 219h-200v-485h106zM902 1604q107 0 159.5 17t73.5 58h182q-8 -100 -72 -159q-102 -100 -343 -100t-343 100q-64 61 -70 159h181 q20 -41 72.5 -58t159.5 -17z" glyph-name="glyph404" horiz-adv-x="2078"/><glyph d="M1962 0h-707l-49 176h-456l-50 -176h-716l436 1366h1112zM1124 549l-141 432l-147 -432h288zM791 1425v201h356v-201h-356z" glyph-name="glyph405" horiz-adv-x="1939"/><glyph d="M1677 354h-841v-354h-703v1366h1544v-459h-841v-137h841v-416zM684 1425v201h356v-201h-356z" glyph-name="glyph406" horiz-adv-x="1726"/><glyph d="M1757 0h-663v145q-94 -98 -198.5 -136t-275.5 -38t-360.5 81t-189.5 523q0 326 144 465q144 140 439 140t441 -191v162h663v-1151zM915.5 776q-90.5 0 -141.5 -57t-51 -164t51 -169t141.5 -62t141.5 62.5t51 167.5t-51 163.5t-141.5 58.5zM342 1268l143 239h494 l-270 -239h-367zM958 1268l144 239h491l-268 -239h-367z" glyph-name="glyph407" horiz-adv-x="1826"/><glyph d="M1757 0h-663v145q-94 -98 -198.5 -136t-275.5 -38t-360.5 81t-189.5 523q0 326 144 465q144 140 439 140t441 -191v162h663v-1151zM915.5 776q-90.5 0 -141.5 -57t-51 -164t51 -169t141.5 -62t141.5 62.5t51 167.5t-51 163.5t-141.5 58.5zM743 1272v211h342v-211h-342z " glyph-name="glyph408" horiz-adv-x="1826"/><glyph d="M518 805h-305v297l-121 -37v203l139 98h287v-561z" glyph-name="one.numr" horiz-adv-x="608"/><glyph d="M725 805h-619v158q330 106 330 180q0 45 -51 45q-70 0 -70 -98h-221q-2 16 -2 45q0 244 332 243q143 0 221 -50t78 -133t-51 -125t-199 -93h252v-172z" glyph-name="two.numr" horiz-adv-x="815"/><glyph d="M284 948q102 0 101 44q0 44 -121 44q-68 0 -117 -4v45l175 109h-222v180h600v-139l-180 -111q94 -2 129 -20q72 -35 72 -119t-83.5 -133.5t-233.5 -49.5t-304 37l-10 142q92 -25 194 -25z" glyph-name="three.numr" horiz-adv-x="815"/><glyph d="M723 805h-301v80h-330v227l232 254h399v-315h82v-166h-82v-80zM432 1038v152l-129 -152h129z" glyph-name="four.numr" horiz-adv-x="894"/><glyph d="M268 942q117 0 117 43q-1 43 -109 43t-184 -10v348h594v-180h-350v-41q37 2 84 2q297 0 297 -164q0 -90 -87 -139.5t-250 -49.5t-288 33v131q119 -16 176 -16z" glyph-name="five.numr" horiz-adv-x="806"/><glyph d="M536 1204q-84 0 -111.5 -11t-31.5 -42q66 14 125 14q244 0 244 -168q0 -129 -111 -174q-74 -29 -243 -29t-242.5 58.5t-73.5 219.5t83 233.5t248 72.5t312 -24v-170q-115 20 -199 20zM381 985q0 -70 59 -70t60 74q0 55 -60 55q-26 0 -59 -12v-47z" glyph-name="six.numr" horiz-adv-x="851"/><glyph d="M92 1141v225h606v-195l-278 -366h-281l205 336h-252z" glyph-name="seven.numr" horiz-adv-x="788"/><glyph d="M96 1214q0 164 340 164t340 -164q0 -109 -133 -135q53 18 95 -31t42 -94q0 -86 -79 -123t-265 -36.5t-266 36.5q-78 37 -78 123q0 47 32 84t83 47q-111 25 -111 129zM440.5 1224q-73.5 0 -73.5 -54t73.5 -54t73.5 54t-73.5 54zM510 979q0 53 -71 53t-70 -53t71 -53t70 53 z" glyph-name="eight.numr" horiz-adv-x="870"/><glyph d="M358 944q108 0 107 47q-43 -10 -151 -10t-165 43.5t-57 149.5t77 155t250 49t243 -55q90 -69 90 -223t-79 -230t-276 -75q-125 -1 -258 22l-18 152q129 -25 237 -25zM473 1155q0 39 -13.5 54.5t-45.5 15.5q-63 0 -64 -62q0 -57 64 -57q22 0 59 4v45z" glyph-name="nine.numr" horiz-adv-x="841"/><glyph d="M450 1382q156 0 242 -75.5t86 -229.5t-100 -227q-76 -59 -245 -59t-247 63q-94 78 -94 241t109 232q93 55 249 55zM435 1174q-85 0 -85 -100t85 -99q85 -1 85 99t-85 100z" glyph-name="zero.numr" horiz-adv-x="870"/><glyph d="M518 0h-305v297l-121 -39v203l139 98h287v-559z" glyph-name="one.dnom" horiz-adv-x="608"/><glyph d="M725 0h-619v158q330 104 330 178q0 45 -51 45q-70 0 -70 -98h-221q-2 16 -2 45q0 244 332 243q143 0 221 -50t78 -133t-50 -125t-200 -91h252v-172z" glyph-name="two.dnom" horiz-adv-x="815"/><glyph d="M282 141q104 0 103 44q0 44 -121 44q-72 0 -117 -4v45l175 109h-222v180h600v-139l-180 -109h19q182 0 182 -135q0 -90 -83.5 -139t-233.5 -49t-304 37l-10 143q88 -27 192 -27z" glyph-name="three.dnom" horiz-adv-x="815"/><glyph d="M723 0h-301v78h-330v227l232 254h399v-315h82v-166h-82v-78zM432 231v152l-129 -152h129z" glyph-name="four.dnom" horiz-adv-x="894"/><glyph d="M385 178q0 43 -131 43q-72 0 -162 -8v346h594v-180h-350v-39q37 2 84 2q297 0 297 -166q0 -90 -87 -139t-250 -49t-288 32v132q115 -16 176 -17q117 0 117 43z" glyph-name="five.dnom" horiz-adv-x="806"/><glyph d="M532 397q-80 0 -107.5 -11t-31.5 -42q66 14 125 14q244 0 244 -168q0 -129 -111 -174q-74 -28 -243 -28t-242.5 58t-73.5 219t83 234t248 73t312 -25v-168q-123 18 -203 18zM381 180q0 -72 57 -71q61 0 62 73q0 55 -60 56q-28 -1 -59 -11v-47z" glyph-name="six.dnom" horiz-adv-x="851"/><glyph d="M92 334v225h606v-194l-278 -365h-281l205 334h-252z" glyph-name="seven.dnom" horiz-adv-x="788"/><glyph d="M96 410q0 162 340 161.5t340 -163.5q0 -109 -133 -134q25 4 27 5q41 -2 75.5 -43t34.5 -86q0 -84 -78 -125q-80 -37 -266 -37t-266 37q-78 41 -78 125q0 47 32 83t83 46q-111 25 -111 131zM440.5 420q-73.5 0 -73.5 -55.5t73.5 -55.5t73.5 55.5t-73.5 55.5zM510 172 q0 53 -71 53t-70 -53t71 -53t70 53z" glyph-name="eight.dnom" horiz-adv-x="870"/><glyph d="M358 137q108 0 107 49q-45 -12 -153 -12t-164 43t-56 149t77 155.5t250 49.5t243 -55q90 -68 90 -222t-79 -231q-79 -76 -276 -75q-127 -1 -258 24l-18 150q129 -25 237 -25zM473 350q0 37 -13.5 52.5t-45.5 15.5q-63 0 -64 -60q0 -57 64 -57q18 0 59 4v45z" glyph-name="nine.dnom" horiz-adv-x="841"/><glyph d="M450 575q156 0 242 -75.5t86 -229.5t-100 -227q-76 -59 -245 -59t-247 63q-94 78 -94 241t109 232q93 55 249 55zM435 367q-85 1 -85 -99t85 -100t85 100t-85 99z" glyph-name="zero.dnom" horiz-adv-x="870"/><glyph d="M739 547h-434v434l-174 -55v295l201 145h407v-819zM1366 1366l-551 -1366h-201l549 1366h203zM1849 0h-434v434l-174 -55v295l201 145h407v-819z" glyph-name="one_slash_one.frac" horiz-adv-x="1980"/><glyph d="M739 547h-434v434l-174 -55v295l201 145h407v-819zM1366 1366l-551 -1366h-201l549 1366h203zM1710 502q424 0 424 -187.5t-124 -259t-358 -71.5t-409 47v192q286 -42 351 -19t65 56q0 66 -189 66q-106 0 -229 -15v508h850v-264h-502v-57q51 4 121 4z" glyph-name="one_slash_five.frac" horiz-adv-x="2263"/><glyph d="M1034 547h-882v231q358 116 414.5 174t56.5 86q0 63 -74 64q-53 0 -75.5 -33t-22.5 -108h-318q-2 25 -2 65q0 186 135 281q113 75 337 75q225 0 327 -78t102 -204q0 -147 -162 -226q-49 -25 -194 -75h358v-252zM1661 1366l-549 -1366h-201l549 1366h201zM2005 502 q424 0 424 -187.5t-123.5 -259t-357.5 -71.5t-410 47v192q286 -42 351 -19t65 56q0 66 -189 66q-113 0 -227 -15v508h848v-264h-502v-57q51 4 121 4z" glyph-name="two_slash_five.frac" horiz-adv-x="2560"/><glyph d="M404 756q146 0 147 64q0 64 -176 65q-76 0 -164 -8v67l250 158h-318v264h858v-205l-258 -160q12 2 29 3q127 0 193.5 -51.5t66.5 -145.5q0 -133 -119 -205t-335 -72t-435 54l-14 209q129 -37 275 -37zM1659 1366l-551 -1366h-201l549 1366h203zM2003 502 q424 0 424 -187.5t-123.5 -259t-357.5 -71.5t-410 47v192q286 -42 351 -19t65 56q0 66 -189 66q-109 0 -229 -15v508h850v-264h-502v-57q51 4 121 4z" glyph-name="three_slash_five.frac" horiz-adv-x="2557"/><glyph d="M1032 547h-428v112h-473v334l332 373h569v-463h117v-244h-117v-112zM616 885v223l-182 -223h182zM1776 1366l-551 -1366h-201l549 1366h203zM2120 502q424 0 424 -187.5t-124 -259t-358 -71.5t-409 47v192q287 -42 351 -19t64 56q0 66 -188 66q-106 0 -229 -15v508h850 v-264h-502v-57q51 4 121 4z" glyph-name="four_slash_five.frac" horiz-adv-x="2672"/><glyph d="M739 547h-434v434l-174 -55v295l201 145h407v-819zM1366 1366l-551 -1366h-201l549 1366h203zM1878 582q-120 0 -160.5 -16.5t-46.5 -61.5q96 20 178 20q178 0 263.5 -59t85.5 -184q0 -189 -170 -261q-86 -36 -295 -36q-283 0 -386 88t-103 320t117.5 338t389.5 106 q209 0 410 -35v-246q-163 27 -283 27zM1655 262q0 -45 8 -61q20 -39 76 -39q86 0 86 106q0 80 -84 80q-43 0 -86 -16v-70z" glyph-name="one_slash_six.frac" horiz-adv-x="2328"/><glyph d="M1022 861.5q0 -187.5 -124 -259.5t-358 -72t-409 48v192q158 -25 251 -25t130 13.5t37 46.5q0 68 -189 67q-115 0 -229 -14v508h848v-264h-500v-58q51 4 119 5q424 0 424 -187.5zM1649 1366l-549 -1366h-201l549 1366h201zM2162 582q-122 0 -162 -16.5t-46 -61.5 q96 20 180 20q178 0 263 -59t85 -184q0 -189 -171 -261q-87 -36 -296 -36q-283 0 -386 88t-103 320t117.5 338t390.5 106q210 0 411 -35v-246q-161 27 -283 27zM1937 262q0 -45 9 -61q20 -39 75 -39q86 0 86 106q0 80 -84 80q-43 0 -86 -16v-70z" glyph-name="five_slash_six.frac" horiz-adv-x="2611"/><glyph d="M334 1425v201h356v-201h-356z" glyph-name="dotaccent.aalt"/><glyph d="M514 1612q200 0 289.5 -50t89.5 -160t-92 -163t-291 -53t-290 52t-91 165t92.5 161t292.5 48zM514 1477q-88 0 -88 -74q0 -90 88 -90t88 90q0 74 -88 74z" glyph-name="ring.aalt"/><glyph d="M961 1423h-386l-63 70l-80 -70h-369l170 191h564z" glyph-name="circumflex.aalt"/><glyph d="M512 1604q109 0 160 17t71 58h183q-6 -96 -72 -159q-102 -100 -342 -100.5t-342 100.5q-66 63 -72 159h183q20 -41 71 -58t160 -17z" glyph-name="breve.aalt"/><glyph d="M670 1423q-56 0 -178 33t-166 33t-68 -45h-213q23 119 97.5 187.5t179.5 68.5q63 0 190 -33t174 -33t70 49h221q-35 -121 -116 -190.5t-191 -69.5z" glyph-name="tilde.aalt"/><glyph d="M645 -272h-541l291 374h525z" glyph-name="cedilla.aalt"/><glyph d="M924 -145q0 -76 104 -76q12 0 53 6v-180q-55 -8 -110 -8q-119 0 -186.5 50t-67.5 145t94 208h188q-47 -63 -61 -90t-14 -55z" glyph-name="ogonek.aalt"/><glyph d="M844 -82l-199 -225h-475l84 225h590z" glyph-name="uniF6C3.aalt"/><glyph d="M1251 1366l-211 -481h-284l98 481h397z" glyph-name="glyph444"/><glyph d="M106 1425v201h322v-201h-322zM594 1425v201h321v-201h-321z" glyph-name="glyph445"/><glyph d="M453 1423l-211 -479h-285l98 479h398z" glyph-name="glyph446" horiz-adv-x="411"/><glyph d="M129 1272v211h307v-211h-307zM590 1272v211h307v-211h-307z" glyph-name="glyph447"/><glyph d="M940 1507l-143 -239h-711l307 239h547z" glyph-name="glyph448"/><glyph d="M621 768v-168h-621v168h621zM326 1382q156 0 241.5 -75.5t85.5 -229.5t-100 -227q-76 -59 -245 -59t-247 63q-94 78 -94 241t109 232q94 55 250 55zM310 1174q-85 0 -85 -100t85 -99q85 -1 85 99t-85 100zM325 575q158 0 244 -75.5t86 -229.5t-100 -227q-76 -59 -245 -59 t-249 63q-94 78 -94 242t111 231q89 55 247 55zM311 368q-86 0 -86 -100t86 -100t86 100t-86 100z" glyph-name="glyph449" horiz-adv-x="620"/></font>
</defs>
</svg>
